<svg id="svg" xmlns="http://www.w3.org/2000/svg" xmlns:xlink="http://www.w3.org/1999/xlink" width="400" height="574.468085106383" viewBox="0, 0, 400,574.468085106383"><g id="svgg"><path id="path0" d="M0.000 128.800 L 0.000 257.600 1.053 257.600 C 2.852 257.600,10.219 260.208,12.400 261.617 C 12.950 261.972,14.480 262.593,15.800 262.996 C 18.448 263.805,18.851 263.969,20.600 264.956 C 22.362 265.950,24.973 267.118,27.400 267.997 C 28.222 268.294,30.779 269.520,32.200 270.298 C 32.640 270.539,34.080 271.128,35.400 271.607 C 38.089 272.583,39.702 273.289,40.000 273.622 C 40.306 273.963,43.585 275.431,45.600 276.128 C 46.590 276.471,48.570 277.231,50.000 277.816 C 54.369 279.606,56.139 280.304,57.600 280.816 C 58.370 281.086,59.313 281.463,59.695 281.654 C 60.077 281.844,60.589 282.000,60.833 282.000 C 61.077 282.000,61.754 282.325,62.338 282.723 C 62.922 283.121,64.750 283.870,66.400 284.389 C 68.050 284.907,70.480 285.864,71.800 286.515 C 73.120 287.167,75.280 288.048,76.600 288.474 C 79.247 289.327,82.488 290.737,82.800 291.171 C 82.910 291.324,84.080 291.861,85.400 292.365 C 88.209 293.436,91.315 294.879,91.600 295.247 C 91.710 295.389,93.060 295.910,94.600 296.406 C 99.220 297.893,101.737 298.893,102.930 299.717 C 104.200 300.594,106.338 300.506,108.276 299.497 C 112.657 297.217,114.319 296.205,115.634 295.017 C 116.459 294.272,117.644 293.337,118.267 292.941 C 118.890 292.545,119.670 291.935,120.000 291.585 C 120.788 290.750,124.248 288.400,124.688 288.400 C 124.877 288.400,125.828 287.680,126.800 286.800 C 127.772 285.920,128.726 285.200,128.918 285.200 C 129.111 285.200,130.828 284.156,132.734 282.879 C 134.640 281.603,136.745 280.338,137.410 280.068 C 138.076 279.798,139.246 279.043,140.010 278.390 C 140.775 277.736,141.580 277.200,141.800 277.198 C 142.020 277.196,143.370 276.289,144.800 275.183 C 146.230 274.076,148.390 272.502,149.600 271.685 C 150.810 270.868,152.036 269.883,152.325 269.496 C 152.615 269.109,153.846 268.156,155.062 267.378 C 156.278 266.600,157.633 265.628,158.073 265.218 C 158.513 264.808,159.892 263.929,161.138 263.265 C 162.384 262.601,164.069 261.489,164.882 260.795 C 166.324 259.563,169.462 257.536,172.510 255.868 C 173.340 255.413,174.368 254.717,174.793 254.321 C 175.219 253.924,175.670 253.600,175.797 253.600 C 175.923 253.600,176.646 252.981,177.403 252.224 C 178.160 251.467,179.390 250.558,180.136 250.204 C 180.882 249.850,181.832 249.254,182.248 248.880 C 182.664 248.506,184.173 247.592,185.602 246.848 C 189.605 244.765,189.540 245.064,186.896 240.919 C 186.728 240.655,184.901 239.887,182.837 239.212 C 180.773 238.538,177.985 237.394,176.642 236.670 C 175.299 235.946,173.300 235.122,172.200 234.839 C 168.830 233.971,166.053 232.922,165.600 232.348 C 165.490 232.208,164.590 231.813,163.600 231.469 C 159.094 229.905,157.706 229.338,156.400 228.529 C 155.630 228.052,154.460 227.540,153.800 227.391 C 151.690 226.915,147.859 225.508,146.407 224.676 C 143.919 223.250,142.734 222.701,141.453 222.383 C 139.453 221.887,136.215 220.632,135.166 219.948 C 134.634 219.602,133.480 219.075,132.600 218.778 C 131.720 218.480,130.829 218.093,130.620 217.918 C 130.411 217.743,129.941 217.600,129.575 217.600 C 129.209 217.600,127.580 217.048,125.955 216.373 C 124.330 215.698,121.110 214.517,118.800 213.748 C 116.490 212.980,113.520 211.851,112.200 211.239 C 109.613 210.041,108.401 209.586,105.600 208.765 C 104.610 208.475,103.240 207.931,102.555 207.556 C 100.086 206.206,99.774 206.071,98.000 205.581 C 94.166 204.523,91.152 203.415,90.490 202.821 C 90.111 202.479,89.275 201.930,88.633 201.600 C 86.535 200.521,85.282 198.917,84.805 196.697 C 83.951 192.724,84.429 79.713,85.307 78.107 C 86.855 75.274,85.082 75.422,120.067 75.200 C 137.374 75.090,151.600 74.910,151.681 74.800 C 153.364 72.502,152.925 51.544,150.784 32.000 C 150.347 28.012,150.113 22.975,149.749 9.700 L 149.484 0.000 74.742 0.000 L 0.000 0.000 0.000 128.800 M302.600 318.490 C 301.720 318.941,300.550 319.510,300.000 319.755 C 299.450 320.000,298.762 320.425,298.471 320.700 C 298.181 320.975,297.821 321.203,297.671 321.206 C 297.522 321.210,296.770 321.772,296.000 322.455 C 295.230 323.138,293.970 324.170,293.200 324.748 C 292.430 325.327,291.565 326.022,291.277 326.294 C 290.990 326.566,289.652 327.435,288.304 328.224 C 286.957 329.014,285.052 330.367,284.071 331.230 C 283.090 332.094,282.043 332.800,281.744 332.800 C 281.445 332.800,281.199 332.935,281.197 333.100 C 281.195 333.265,280.790 333.597,280.297 333.838 C 278.517 334.708,273.774 337.736,272.593 338.757 C 271.930 339.331,270.130 340.427,268.593 341.194 C 267.057 341.961,265.567 342.903,265.282 343.287 C 264.997 343.671,263.917 344.552,262.882 345.245 C 261.847 345.937,260.550 346.982,260.000 347.568 C 259.450 348.154,258.190 349.102,257.200 349.676 C 256.210 350.249,254.770 351.275,254.000 351.955 C 253.230 352.636,252.285 353.296,251.900 353.423 C 251.515 353.550,251.200 353.822,251.200 354.027 C 251.200 354.232,250.962 354.400,250.672 354.400 C 250.382 354.400,249.425 355.016,248.546 355.768 C 247.667 356.520,246.150 357.543,245.174 358.040 C 244.198 358.537,242.770 359.418,242.000 359.998 C 241.230 360.578,239.700 361.559,238.600 362.178 C 237.500 362.797,235.970 363.893,235.200 364.615 C 234.430 365.337,233.170 366.279,232.400 366.709 C 229.976 368.063,226.622 370.180,226.062 370.709 C 225.766 370.989,225.009 371.485,224.380 371.810 C 223.534 372.248,223.170 372.793,222.983 373.901 C 222.844 374.725,222.647 375.704,222.546 376.076 C 222.321 376.899,222.939 377.249,227.042 378.627 C 228.778 379.209,230.676 380.027,231.260 380.443 C 231.845 380.859,232.523 381.200,232.767 381.200 C 233.011 381.200,233.568 381.380,234.005 381.600 C 234.442 381.820,235.158 382.180,235.595 382.400 C 236.032 382.620,236.707 382.803,237.095 382.806 C 238.060 382.814,240.806 383.798,243.098 384.956 C 244.144 385.485,245.810 386.145,246.800 386.422 C 247.790 386.699,249.823 387.531,251.318 388.271 C 252.812 389.012,255.422 390.076,257.118 390.637 C 260.693 391.820,264.000 393.236,264.000 393.584 C 264.000 393.717,264.855 394.072,265.900 394.373 C 266.945 394.674,268.520 395.235,269.400 395.619 C 270.280 396.004,271.585 396.561,272.300 396.857 C 273.015 397.153,273.600 397.531,273.600 397.698 C 273.600 397.864,273.872 398.000,274.205 398.000 C 274.538 398.000,275.123 398.158,275.505 398.351 C 275.887 398.544,276.920 398.916,277.800 399.177 C 280.231 399.900,282.874 401.035,284.400 402.011 C 284.950 402.363,286.210 402.897,287.200 403.198 C 288.190 403.498,289.180 403.859,289.400 404.000 C 289.620 404.141,290.610 404.493,291.600 404.782 C 294.742 405.700,296.194 406.190,296.400 406.400 C 296.510 406.512,297.680 406.942,299.000 407.356 C 304.319 409.024,306.277 409.702,307.896 410.433 C 308.828 410.855,309.749 411.200,309.942 411.200 C 310.249 411.200,312.302 411.958,315.600 413.290 C 316.150 413.512,316.960 413.884,317.400 414.117 C 318.428 414.660,321.126 415.987,322.353 416.553 C 322.877 416.794,323.777 417.609,324.353 418.365 L 325.400 419.738 325.517 478.369 C 325.640 540.636,325.675 538.852,324.300 540.437 C 322.546 542.459,323.528 542.400,291.423 542.400 L 261.193 542.400 259.956 543.500 C 257.913 545.317,257.509 546.463,257.979 549.107 C 258.562 552.393,259.206 562.906,259.203 569.100 L 259.200 574.400 329.600 574.400 L 400.000 574.400 400.000 465.600 L 400.000 356.800 399.012 356.800 C 398.469 356.800,397.431 356.467,396.705 356.059 C 395.980 355.652,394.219 354.909,392.793 354.408 C 391.367 353.908,389.570 353.181,388.800 352.793 C 386.266 351.517,379.031 347.974,377.400 347.210 C 376.520 346.798,374.990 346.236,374.000 345.961 C 373.010 345.685,370.670 344.694,368.800 343.759 C 365.701 342.208,364.258 341.627,358.800 339.731 C 357.810 339.387,356.910 338.992,356.800 338.852 C 356.378 338.318,350.952 336.001,350.104 335.994 C 349.101 335.985,346.749 335.120,345.496 334.300 C 344.909 333.915,344.162 333.600,343.838 333.600 C 343.513 333.600,343.136 333.420,343.000 333.200 C 342.864 332.980,342.401 332.800,341.971 332.800 C 341.541 332.800,340.832 332.620,340.395 332.400 C 339.958 332.180,339.242 331.820,338.805 331.600 C 338.368 331.380,337.821 331.200,337.589 331.200 C 337.357 331.200,336.809 330.867,336.373 330.461 C 335.624 329.763,334.761 329.440,330.700 328.339 C 329.765 328.086,327.836 327.258,326.414 326.499 C 324.991 325.741,322.982 324.787,321.948 324.380 C 320.914 323.972,318.374 322.820,316.304 321.819 C 314.233 320.819,312.325 320.000,312.065 320.000 C 311.804 320.000,310.828 319.663,309.896 319.251 C 305.930 317.498,304.773 317.377,302.600 318.490 " stroke="none" fill="#e4eb1a" fill-rule="evenodd"></path><path id="path1" d="M261.038 5.100 C 260.205 21.557,259.960 28.602,259.583 47.000 C 259.353 58.220,258.989 68.062,258.774 68.871 C 258.233 70.915,259.845 74.574,261.466 74.981 C 262.062 75.130,275.791 75.206,291.975 75.150 C 308.159 75.093,321.835 75.193,322.366 75.371 C 323.981 75.914,325.122 77.401,325.653 79.656 C 326.303 82.410,326.661 192.064,326.029 194.600 C 325.809 195.480,325.517 196.970,325.378 197.911 C 325.206 199.080,324.722 200.030,323.851 200.911 C 321.208 203.582,320.191 204.111,315.575 205.219 C 313.499 205.718,311.400 206.434,310.911 206.812 C 309.958 207.547,306.928 208.781,304.000 209.626 C 303.010 209.911,301.170 210.652,299.911 211.272 C 298.653 211.893,297.204 212.400,296.691 212.400 C 296.179 212.400,295.589 212.549,295.380 212.730 C 295.171 212.912,294.190 213.293,293.200 213.576 C 291.017 214.201,289.963 214.626,287.546 215.856 C 286.526 216.375,285.388 216.800,285.016 216.800 C 283.744 216.800,278.601 218.727,275.200 220.478 C 272.098 222.075,268.880 223.200,267.414 223.200 C 267.098 223.200,266.066 223.710,265.120 224.334 C 264.174 224.958,262.320 225.871,261.000 226.363 C 259.680 226.854,257.610 227.763,256.400 228.382 C 254.450 229.380,252.561 230.084,247.600 231.663 C 246.830 231.908,245.750 232.414,245.200 232.788 C 243.728 233.788,240.946 234.802,238.422 235.257 C 237.200 235.477,235.552 236.100,234.761 236.641 C 233.230 237.687,229.445 239.200,228.359 239.200 C 226.544 239.200,223.701 240.888,222.859 242.467 C 221.640 244.751,221.717 244.929,224.483 246.206 C 225.849 246.837,227.496 247.858,228.143 248.476 C 228.790 249.094,229.562 249.600,229.859 249.600 C 230.157 249.600,230.400 249.738,230.400 249.906 C 230.400 250.074,231.108 250.518,231.974 250.893 C 232.840 251.268,234.184 252.211,234.961 252.988 C 235.738 253.764,236.577 254.400,236.825 254.400 C 237.361 254.400,239.550 255.885,240.400 256.826 C 240.730 257.190,242.152 258.070,243.561 258.781 C 244.969 259.491,246.679 260.596,247.361 261.235 C 248.042 261.875,249.230 262.694,250.000 263.056 C 250.770 263.418,252.056 264.301,252.859 265.019 C 253.661 265.736,254.991 266.643,255.815 267.034 C 256.639 267.425,258.232 268.612,259.355 269.672 C 260.478 270.733,261.621 271.600,261.893 271.600 C 262.166 271.600,263.294 272.500,264.400 273.600 C 265.506 274.700,266.673 275.600,266.993 275.600 C 267.830 275.600,270.399 277.088,271.800 278.384 C 272.460 278.995,274.080 280.075,275.400 280.786 C 276.720 281.496,277.944 282.329,278.119 282.637 C 278.295 282.945,279.220 283.554,280.176 283.989 C 281.823 284.739,284.806 286.829,286.552 288.456 C 286.992 288.865,287.562 289.200,287.819 289.200 C 288.077 289.200,289.078 289.875,290.044 290.700 C 291.010 291.525,292.430 292.546,293.200 292.969 C 293.970 293.393,295.465 294.509,296.523 295.451 C 297.581 296.393,299.418 297.639,300.606 298.221 C 301.794 298.802,302.976 299.530,303.232 299.839 C 304.017 300.784,306.787 300.299,309.218 298.790 C 311.022 297.671,314.171 296.400,315.141 296.400 C 315.527 296.400,316.677 295.871,317.696 295.225 C 318.715 294.579,320.775 293.663,322.274 293.189 C 323.773 292.716,325.630 291.989,326.400 291.576 C 329.563 289.876,332.821 288.400,333.411 288.400 C 334.066 288.400,335.940 287.543,338.512 286.068 C 339.344 285.590,340.259 285.200,340.546 285.200 C 341.524 285.200,346.194 283.581,348.600 282.408 C 349.920 281.764,352.080 280.853,353.400 280.383 C 354.720 279.913,356.520 279.158,357.400 278.705 C 360.915 276.895,361.932 276.490,365.200 275.596 C 367.070 275.084,369.050 274.367,369.600 274.003 C 370.150 273.638,371.230 273.093,372.000 272.793 C 372.770 272.492,373.990 271.920,374.712 271.523 C 375.434 271.125,376.226 270.800,376.472 270.800 C 376.718 270.800,378.141 270.096,379.634 269.235 C 381.126 268.375,383.484 267.270,384.874 266.779 C 386.263 266.289,387.490 265.776,387.600 265.639 C 388.016 265.119,391.493 263.637,393.800 262.995 C 395.120 262.628,396.613 262.164,397.119 261.964 C 397.624 261.764,398.479 261.600,399.019 261.600 L 400.000 261.600 400.000 130.800 L 400.000 0.000 330.648 0.000 L 261.296 0.000 261.038 5.100 M103.144 318.848 C 102.405 319.241,100.594 319.943,99.119 320.408 C 97.645 320.874,96.025 321.576,95.519 321.968 C 93.764 323.329,89.731 324.800,87.753 324.800 C 87.418 324.800,86.392 325.307,85.472 325.928 C 83.670 327.143,80.274 328.800,79.585 328.800 C 79.134 328.800,77.096 329.760,74.800 331.054 C 74.030 331.488,71.813 332.354,69.872 332.978 C 67.932 333.602,66.100 334.357,65.801 334.656 C 65.502 334.955,65.062 335.200,64.823 335.200 C 64.584 335.200,64.077 335.358,63.695 335.551 C 62.973 335.916,61.494 336.370,58.361 337.189 C 57.349 337.453,56.045 338.079,55.463 338.580 C 54.371 339.518,53.153 340.016,48.000 341.634 C 46.350 342.153,44.200 343.077,43.222 343.688 C 42.244 344.300,41.233 344.800,40.975 344.800 C 40.245 344.800,36.583 346.326,32.200 348.458 C 30.000 349.528,27.973 350.402,27.695 350.401 C 27.165 350.400,25.544 351.216,25.200 351.656 C 24.711 352.283,19.982 354.279,17.800 354.779 C 16.480 355.082,15.040 355.643,14.600 356.026 C 13.581 356.912,10.686 358.227,8.523 358.785 C 7.601 359.023,5.828 359.754,4.583 360.409 C 3.337 361.064,1.797 361.600,1.159 361.600 L 0.000 361.600 0.000 468.000 L 0.000 574.400 75.762 574.400 L 151.523 574.400 151.739 570.300 C 152.610 553.787,152.778 546.387,152.304 545.316 C 151.208 542.841,153.390 543.011,121.029 542.876 C 86.827 542.733,87.601 542.775,85.798 540.971 C 83.913 539.086,83.932 539.800,84.075 476.400 L 84.200 420.600 85.085 419.000 C 86.124 417.123,86.987 416.474,90.100 415.228 C 91.365 414.721,92.400 414.192,92.400 414.051 C 92.400 413.737,94.003 413.078,96.400 412.406 C 100.513 411.253,102.040 410.703,102.555 410.188 C 102.855 409.888,104.337 409.254,105.850 408.779 C 107.362 408.304,109.371 407.664,110.314 407.357 C 111.257 407.051,112.277 406.800,112.581 406.800 C 112.885 406.800,113.195 406.614,113.271 406.387 C 113.430 405.910,119.807 403.614,121.000 403.604 C 121.440 403.600,123.060 402.958,124.600 402.177 C 127.342 400.785,129.792 399.804,133.800 398.494 C 134.900 398.134,135.890 397.740,136.000 397.619 C 136.542 397.022,141.609 394.957,144.000 394.358 C 145.210 394.056,147.165 393.230,148.344 392.524 C 149.523 391.817,151.712 390.861,153.208 390.397 C 154.705 389.934,156.319 389.217,156.796 388.803 C 157.273 388.390,159.224 387.587,161.132 387.019 C 166.709 385.360,167.346 385.129,168.409 384.383 C 168.964 383.994,171.276 383.053,173.547 382.294 C 175.818 381.535,178.021 380.618,178.442 380.257 C 178.864 379.895,179.441 379.600,179.725 379.600 C 180.008 379.600,180.411 379.453,180.620 379.273 C 180.829 379.093,181.990 378.722,183.200 378.447 C 184.410 378.173,186.053 377.672,186.851 377.335 L 188.303 376.722 187.574 374.730 C 186.652 372.207,186.386 371.900,184.538 371.232 C 183.705 370.931,182.394 370.090,181.624 369.363 C 180.853 368.636,179.543 367.735,178.711 367.360 C 177.880 366.985,177.200 366.526,177.200 366.339 C 177.200 366.153,176.949 366.000,176.642 366.000 C 176.336 366.000,175.481 365.433,174.742 364.740 C 174.004 364.047,172.590 363.042,171.600 362.505 C 170.610 361.968,169.438 361.140,168.995 360.665 C 168.552 360.189,167.472 359.440,166.595 359.000 C 165.718 358.560,164.940 358.065,164.867 357.900 C 164.793 357.735,164.540 357.600,164.304 357.600 C 164.067 357.600,162.957 356.901,161.837 356.047 C 160.717 355.193,159.260 354.221,158.600 353.887 C 157.940 353.554,156.916 352.736,156.324 352.070 C 155.732 351.405,154.652 350.572,153.924 350.221 C 153.196 349.869,151.892 348.944,151.026 348.164 C 150.161 347.385,148.631 346.273,147.626 345.693 C 145.847 344.665,144.400 343.365,144.400 342.794 C 144.400 342.544,142.299 341.412,139.707 340.267 C 139.215 340.050,138.493 339.574,138.102 339.209 C 137.711 338.845,136.313 337.959,134.995 337.241 C 133.678 336.523,132.060 335.427,131.400 334.805 C 130.740 334.183,129.357 333.283,128.326 332.805 C 127.295 332.327,125.902 331.411,125.230 330.768 C 124.557 330.126,123.906 329.600,123.782 329.600 C 123.339 329.600,118.800 326.364,118.800 326.048 C 118.800 325.871,117.945 325.295,116.900 324.770 C 115.855 324.244,114.417 323.246,113.705 322.551 C 110.088 319.028,105.701 317.489,103.144 318.848 " stroke="none" fill="#730737" fill-rule="evenodd"></path><path id="path2" d="M154.965 13.700 C 155.117 21.235,155.396 28.390,155.585 29.600 C 155.936 31.851,156.496 37.624,157.202 46.269 C 157.421 48.947,157.596 53.357,157.591 56.069 C 157.586 58.781,157.884 63.700,158.254 67.000 C 159.219 75.606,158.820 76.782,154.136 79.163 L 151.701 80.400 121.471 80.400 L 91.241 80.400 90.220 81.738 L 89.200 83.076 89.200 138.526 C 89.200 193.234,89.211 193.995,90.000 195.400 C 90.440 196.183,90.800 197.060,90.800 197.348 C 90.800 197.881,92.416 198.800,93.353 198.800 C 94.753 198.800,100.478 200.937,101.645 201.895 C 102.000 202.187,103.458 202.759,104.885 203.167 C 107.781 203.995,111.052 205.365,111.985 206.142 C 112.323 206.423,114.443 207.256,116.696 207.993 C 118.949 208.730,121.109 209.626,121.496 209.983 C 122.215 210.647,127.287 212.400,128.488 212.400 C 128.853 212.400,129.264 212.580,129.400 212.800 C 129.536 213.020,129.970 213.200,130.365 213.200 C 130.760 213.200,131.521 213.605,132.055 214.101 C 132.663 214.664,134.449 215.359,136.814 215.953 C 140.311 216.831,143.519 218.101,144.000 218.797 C 144.211 219.104,145.185 219.442,149.949 220.863 C 151.571 221.347,153.528 222.170,154.298 222.692 C 155.068 223.215,156.441 223.801,157.349 223.996 C 160.627 224.696,161.837 225.096,164.000 226.191 C 165.210 226.804,166.290 227.427,166.400 227.576 C 166.510 227.725,167.680 228.090,169.000 228.388 C 170.320 228.685,171.571 229.080,171.780 229.264 C 171.989 229.449,172.486 229.600,172.885 229.600 C 173.672 229.600,174.954 230.248,176.050 231.200 C 176.430 231.530,178.149 232.210,179.871 232.711 C 181.592 233.212,184.440 234.322,186.200 235.177 C 187.960 236.033,189.867 236.834,190.438 236.958 C 191.008 237.082,192.403 237.923,193.538 238.826 C 197.395 241.897,196.156 246.251,190.809 248.410 C 190.044 248.719,188.852 249.556,188.159 250.270 C 187.466 250.983,186.152 251.866,185.239 252.231 C 184.326 252.597,183.358 253.196,183.089 253.564 C 182.820 253.932,181.970 254.667,181.200 255.197 C 180.430 255.727,179.710 256.260,179.600 256.381 C 179.490 256.502,178.860 256.865,178.200 257.186 C 177.540 257.508,176.599 258.251,176.109 258.837 C 175.618 259.424,174.361 260.306,173.314 260.799 C 172.267 261.291,171.175 262.029,170.887 262.439 C 170.600 262.849,169.114 263.916,167.584 264.809 C 166.054 265.703,164.355 266.881,163.808 267.428 C 163.261 267.975,161.991 268.775,160.985 269.206 C 159.980 269.637,158.700 270.532,158.143 271.195 C 157.585 271.858,156.939 272.400,156.706 272.400 C 156.198 272.400,152.657 274.726,151.056 276.111 C 150.427 276.656,149.167 277.344,148.256 277.641 C 147.345 277.937,145.970 278.840,145.200 279.647 C 144.430 280.454,143.000 281.539,142.022 282.057 C 141.044 282.576,139.784 283.461,139.222 284.024 C 137.834 285.414,135.794 286.800,135.135 286.800 C 134.838 286.800,134.034 287.410,133.350 288.156 C 132.665 288.902,131.406 289.838,130.552 290.236 C 129.699 290.633,128.910 291.064,128.800 291.193 C 128.012 292.116,124.661 294.501,123.289 295.115 C 122.374 295.525,121.241 296.348,120.773 296.944 C 120.304 297.539,119.003 298.492,117.881 299.060 C 116.759 299.629,115.520 300.503,115.127 301.002 C 114.276 302.084,109.638 304.400,108.323 304.400 C 107.812 304.400,106.833 304.561,106.147 304.758 C 104.880 305.121,104.501 305.037,97.000 302.726 C 95.460 302.251,93.660 301.477,93.000 301.005 C 92.340 300.533,90.285 299.652,88.433 299.047 C 86.582 298.442,84.299 297.419,83.361 296.773 C 82.423 296.128,81.431 295.600,81.156 295.600 C 79.761 295.600,74.626 293.522,72.022 291.905 C 71.044 291.297,69.874 290.794,69.422 290.786 C 68.246 290.767,62.818 288.565,62.265 287.884 C 62.009 287.569,60.250 286.818,58.355 286.215 C 56.406 285.594,54.339 284.631,53.595 283.996 C 52.872 283.378,51.812 282.787,51.240 282.682 C 47.447 281.982,43.538 280.396,42.122 278.980 C 41.804 278.661,41.062 278.302,40.472 278.181 C 36.467 277.358,33.996 276.451,32.800 275.365 C 32.250 274.866,31.260 274.336,30.600 274.189 C 28.784 273.783,24.627 272.325,24.400 272.014 C 24.022 271.497,20.998 270.089,19.200 269.593 C 18.210 269.320,16.860 268.867,16.200 268.586 C 15.540 268.306,14.286 267.782,13.414 267.423 C 12.542 267.063,11.732 266.628,11.614 266.457 C 11.334 266.048,2.979 263.181,1.300 262.917 L 0.000 262.712 0.000 309.356 L 0.000 356.000 1.129 356.000 C 1.761 356.000,2.948 355.478,3.829 354.811 C 4.693 354.157,5.591 353.617,5.825 353.611 C 6.059 353.605,6.995 353.240,7.906 352.800 C 8.816 352.360,9.953 352.000,10.431 352.000 C 11.166 352.000,13.586 350.931,16.677 349.240 C 17.627 348.721,22.603 347.200,23.353 347.200 C 23.675 347.200,24.478 346.660,25.138 346.000 C 25.798 345.340,26.702 344.800,27.146 344.800 C 27.590 344.800,28.045 344.651,28.158 344.468 C 28.270 344.286,29.406 343.899,30.681 343.609 C 31.957 343.318,33.900 342.479,35.000 341.743 C 36.318 340.861,38.344 340.064,40.938 339.406 C 43.354 338.793,45.310 338.042,45.997 337.464 C 46.613 336.946,48.680 336.013,50.590 335.392 C 52.586 334.742,54.543 333.814,55.191 333.208 C 56.225 332.242,57.239 331.818,61.200 330.695 C 62.970 330.193,63.805 329.813,65.800 328.601 C 66.680 328.067,68.930 327.143,70.800 326.548 C 72.670 325.954,74.560 325.174,75.000 324.815 C 76.300 323.756,81.842 321.600,83.265 321.600 C 83.601 321.600,84.188 321.255,84.570 320.834 C 85.355 319.966,88.081 318.824,92.216 317.629 C 93.765 317.182,95.385 316.498,95.816 316.108 C 99.877 312.441,109.995 312.504,113.711 316.220 C 114.742 317.251,115.340 317.641,118.090 319.079 C 118.690 319.392,119.505 320.062,119.902 320.567 C 120.300 321.072,121.310 321.732,122.147 322.035 C 122.984 322.338,124.239 323.180,124.935 323.907 C 125.631 324.633,127.423 325.878,128.917 326.672 C 130.411 327.467,131.951 328.519,132.338 329.011 C 132.725 329.504,133.991 330.387,135.152 330.976 C 136.365 331.590,137.548 332.546,137.932 333.220 C 138.299 333.866,138.880 334.396,139.222 334.397 C 140.137 334.401,143.212 336.451,145.145 338.346 C 146.073 339.256,147.185 340.000,147.617 340.000 C 148.048 340.000,149.100 340.720,149.954 341.600 C 150.808 342.480,151.715 343.200,151.969 343.200 C 152.746 343.200,155.654 344.817,156.758 345.862 C 157.331 346.405,158.863 347.479,160.161 348.248 C 161.460 349.017,163.017 350.176,163.622 350.823 C 164.226 351.471,165.026 352.000,165.399 352.000 C 166.152 352.000,167.973 353.194,169.800 354.885 C 170.460 355.496,171.225 355.997,171.500 355.998 C 171.775 355.999,172.000 356.180,172.000 356.400 C 172.000 356.620,172.269 356.800,172.598 356.800 C 172.926 356.800,173.994 357.587,174.970 358.550 C 175.946 359.512,177.218 360.418,177.796 360.563 C 178.374 360.708,179.602 361.511,180.524 362.347 C 181.446 363.182,183.345 364.564,184.745 365.418 C 186.145 366.271,187.377 367.197,187.484 367.475 C 187.695 368.025,189.825 369.200,190.610 369.200 C 192.428 369.200,195.579 373.786,195.594 376.454 C 195.600 377.514,193.109 380.400,192.189 380.400 C 191.951 380.400,191.177 380.827,190.469 381.349 C 189.093 382.365,187.548 382.981,182.800 384.408 C 181.150 384.903,179.710 385.447,179.600 385.615 C 179.490 385.783,178.320 386.416,177.000 387.022 C 174.796 388.033,173.528 388.455,170.800 389.087 C 170.250 389.215,169.710 389.447,169.600 389.604 C 169.050 390.387,161.708 393.200,160.215 393.200 C 159.861 393.200,158.267 393.891,156.672 394.737 C 155.076 395.582,152.158 396.689,150.186 397.197 C 148.214 397.705,146.510 398.238,146.400 398.380 C 145.451 399.607,142.990 400.619,138.400 401.670 C 137.190 401.947,136.110 402.278,136.000 402.406 C 135.368 403.140,133.159 404.318,131.600 404.753 C 130.610 405.028,129.247 405.422,128.572 405.627 C 127.896 405.832,126.976 406.000,126.527 406.000 C 126.077 406.000,125.049 406.525,124.242 407.167 C 123.434 407.809,121.744 408.631,120.487 408.995 C 119.229 409.358,117.480 409.861,116.600 410.111 C 115.720 410.362,114.910 410.673,114.800 410.802 C 114.690 410.932,114.060 411.401,113.400 411.845 C 112.306 412.580,111.479 412.882,107.200 414.110 C 104.737 414.817,103.600 415.289,103.600 415.605 C 103.600 416.062,98.824 417.894,95.865 418.573 C 93.391 419.140,91.678 420.179,90.755 421.673 C 90.236 422.513,89.674 423.200,89.506 423.200 C 89.338 423.200,89.204 448.175,89.209 478.700 L 89.219 534.200 90.309 536.141 L 91.400 538.083 122.200 538.142 C 156.214 538.208,154.462 538.075,157.233 540.794 C 158.833 542.364,159.527 545.716,158.814 548.431 C 158.345 550.219,157.673 559.713,157.436 567.900 L 157.247 574.400 205.881 574.400 L 254.515 574.400 254.264 571.700 C 254.126 570.215,253.903 565.040,253.769 560.200 C 253.554 552.471,253.424 551.181,252.697 549.600 C 250.788 545.448,252.631 540.066,256.339 538.963 C 256.923 538.789,271.170 538.536,288.000 538.400 C 304.830 538.264,319.140 538.008,319.800 537.830 C 322.139 537.201,322.000 540.895,322.000 479.305 L 322.000 422.363 320.750 421.681 C 320.062 421.307,319.027 420.621,318.450 420.157 C 317.872 419.693,316.680 419.086,315.800 418.808 C 314.920 418.529,313.887 418.144,313.505 417.951 C 313.123 417.758,312.536 417.600,312.201 417.600 C 311.427 417.600,307.970 415.999,307.272 415.317 C 306.982 415.033,306.262 414.694,305.672 414.562 C 302.399 413.833,297.823 412.202,296.882 411.429 C 295.916 410.636,293.567 409.779,289.701 408.810 C 288.987 408.631,287.547 407.950,286.501 407.297 C 285.455 406.644,283.700 405.891,282.600 405.622 C 277.899 404.475,277.016 404.143,275.896 403.100 C 275.247 402.495,274.401 402.000,274.017 402.000 C 273.633 402.000,272.798 401.841,272.160 401.647 C 271.522 401.452,270.190 401.056,269.200 400.766 C 268.210 400.475,266.680 399.820,265.800 399.310 C 263.318 397.870,261.982 397.325,259.600 396.782 C 257.111 396.214,253.934 394.940,253.580 394.368 C 253.450 394.158,251.822 393.567,249.961 393.055 C 246.230 392.029,241.600 390.085,241.600 389.545 C 241.600 389.355,241.227 389.200,240.771 389.200 C 239.497 389.200,233.971 387.263,232.400 386.266 C 231.630 385.777,229.740 384.968,228.200 384.468 C 219.977 381.798,215.607 378.946,215.602 376.246 C 215.596 372.758,216.544 371.350,220.171 369.459 C 221.649 368.688,223.405 367.486,224.073 366.787 C 224.740 366.088,226.053 365.178,226.990 364.763 C 227.928 364.348,228.919 363.739,229.193 363.409 C 229.467 363.078,230.796 362.059,232.146 361.144 C 233.496 360.229,235.221 358.941,235.980 358.282 C 236.739 357.623,238.089 356.762,238.981 356.367 C 239.873 355.973,241.128 355.101,241.771 354.431 C 242.413 353.760,243.853 352.734,244.969 352.150 C 246.086 351.567,247.291 350.754,247.647 350.345 C 248.003 349.935,248.476 349.600,248.698 349.600 C 248.920 349.600,249.323 349.334,249.593 349.008 C 250.118 348.376,252.271 347.200,252.904 347.200 C 253.113 347.200,253.644 346.743,254.083 346.185 C 254.522 345.627,255.933 344.640,257.217 343.991 C 258.502 343.343,259.699 342.572,259.877 342.278 C 260.365 341.473,263.732 339.282,264.954 338.976 C 265.547 338.827,266.484 338.112,267.037 337.387 C 267.591 336.661,268.875 335.677,269.892 335.199 C 270.908 334.721,272.079 333.899,272.494 333.371 C 272.909 332.844,274.453 331.741,275.924 330.921 C 277.396 330.102,278.946 328.996,279.369 328.465 C 279.791 327.934,280.826 327.191,281.669 326.814 C 282.511 326.437,283.913 325.469,284.783 324.664 C 285.653 323.859,286.643 323.200,286.983 323.200 C 287.322 323.200,287.601 323.065,287.603 322.900 C 287.606 322.581,289.510 321.600,290.125 321.600 C 290.327 321.600,291.105 320.900,291.854 320.045 C 292.604 319.190,293.799 318.260,294.509 317.979 C 295.219 317.698,296.441 316.823,297.224 316.034 C 299.605 313.636,306.704 312.579,310.600 314.044 C 313.087 314.978,315.335 316.078,315.886 316.629 C 316.199 316.942,316.938 317.307,317.528 317.439 C 320.266 318.053,323.533 319.388,324.877 320.442 C 325.689 321.079,326.625 321.600,326.958 321.600 C 327.290 321.600,327.976 321.757,328.481 321.949 C 328.987 322.141,330.120 322.520,331.000 322.793 C 331.880 323.065,333.992 323.988,335.694 324.844 C 337.395 325.700,339.036 326.400,339.340 326.400 C 340.322 326.400,344.155 328.109,345.779 329.271 C 346.647 329.892,347.674 330.400,348.060 330.400 C 348.446 330.400,349.176 330.557,349.681 330.749 C 350.187 330.941,351.320 331.320,352.200 331.591 C 353.080 331.862,354.430 332.571,355.200 333.166 C 355.970 333.761,357.680 334.572,359.000 334.969 C 361.796 335.810,365.600 337.557,365.600 338.000 C 365.600 338.341,366.138 338.524,370.231 339.573 C 373.391 340.382,374.663 340.957,375.711 342.049 C 376.102 342.457,376.912 342.891,377.511 343.013 C 380.472 343.620,384.061 345.028,385.261 346.054 C 385.997 346.683,386.857 347.199,387.172 347.199 C 388.465 347.201,394.615 349.471,396.096 350.493 C 396.699 350.909,397.824 351.352,398.596 351.477 L 400.000 351.705 400.000 309.452 L 400.000 267.200 399.160 267.200 C 398.699 267.200,397.754 267.460,397.060 267.777 C 395.252 268.604,390.793 270.000,389.958 270.000 C 389.567 270.000,389.128 270.193,388.983 270.428 C 388.837 270.664,387.611 271.359,386.259 271.974 C 382.596 273.639,381.635 274.000,380.859 274.000 C 380.472 274.000,379.535 274.460,378.778 275.023 C 377.047 276.309,375.542 276.980,373.000 277.603 C 369.737 278.401,368.236 278.956,367.600 279.599 C 366.643 280.567,364.469 281.447,360.600 282.434 C 359.500 282.714,358.330 283.245,358.000 283.613 C 357.132 284.580,355.007 285.597,352.139 286.417 C 350.761 286.812,349.041 287.563,348.317 288.087 C 346.647 289.296,345.501 289.800,343.000 290.426 C 340.694 291.004,337.600 292.352,337.600 292.780 C 337.600 292.941,336.835 293.313,335.900 293.608 C 334.965 293.903,334.020 294.259,333.800 294.400 C 333.580 294.541,332.590 294.886,331.600 295.167 C 330.610 295.448,329.440 295.874,329.000 296.115 C 325.348 298.108,321.889 299.578,320.800 299.600 C 320.470 299.606,319.805 299.834,319.322 300.106 C 315.809 302.084,314.632 302.608,311.800 303.457 C 310.040 303.985,308.047 304.593,307.372 304.808 C 305.864 305.289,303.494 305.319,302.980 304.863 C 302.771 304.677,301.531 304.200,300.225 303.802 C 298.766 303.357,297.224 302.515,296.225 301.617 C 295.331 300.813,293.610 299.549,292.400 298.808 C 291.190 298.067,289.750 297.062,289.200 296.574 C 288.650 296.087,287.391 295.282,286.402 294.786 C 285.413 294.290,284.153 293.387,283.602 292.780 C 283.051 292.173,282.024 291.389,281.321 291.038 C 279.401 290.082,276.400 287.989,276.400 287.607 C 276.400 287.423,275.575 286.872,274.566 286.384 C 272.767 285.513,270.800 283.874,270.800 283.246 C 270.800 283.071,270.077 282.689,269.194 282.398 C 268.310 282.106,266.793 281.118,265.823 280.201 C 264.853 279.285,262.988 278.026,261.679 277.405 C 260.314 276.757,259.029 275.819,258.668 275.207 C 258.299 274.582,257.385 273.925,256.463 273.621 C 255.597 273.335,254.433 272.718,253.878 272.250 C 251.697 270.415,251.335 270.167,249.421 269.200 C 248.332 268.650,246.841 267.615,246.107 266.900 C 245.373 266.184,244.118 265.326,243.317 264.991 C 242.517 264.657,241.098 263.757,240.164 262.992 C 239.230 262.226,238.271 261.600,238.033 261.600 C 237.795 261.600,237.600 261.441,237.600 261.246 C 237.600 261.051,236.980 260.597,236.223 260.238 C 235.465 259.878,234.485 259.126,234.045 258.567 C 233.605 258.007,232.380 257.131,231.323 256.620 C 230.265 256.109,229.040 255.291,228.600 254.801 C 228.160 254.312,226.540 253.097,225.000 252.100 C 223.460 251.104,221.982 249.978,221.716 249.599 C 221.450 249.220,220.640 248.687,219.916 248.415 C 215.908 246.906,215.485 246.467,215.278 243.604 C 214.991 239.644,216.371 238.002,221.178 236.585 C 221.716 236.426,223.030 235.759,224.098 235.102 C 225.166 234.444,226.661 233.748,227.420 233.553 C 228.179 233.359,229.388 233.048,230.106 232.863 C 231.927 232.394,234.400 231.179,234.400 230.754 C 234.400 230.559,234.646 230.400,234.947 230.400 C 235.247 230.400,236.372 230.060,237.447 229.644 C 238.521 229.228,240.210 228.671,241.200 228.405 C 242.979 227.928,243.318 227.781,245.755 226.439 C 247.028 225.737,251.563 224.267,253.904 223.797 C 254.621 223.653,255.431 223.323,255.704 223.065 C 256.664 222.156,259.833 220.812,262.930 220.000 C 264.651 219.549,266.541 218.825,267.130 218.391 C 268.372 217.475,272.219 216.003,273.394 215.994 C 274.546 215.985,276.806 215.135,278.202 214.186 C 280.000 212.963,281.098 212.546,284.489 211.795 C 286.428 211.366,287.992 210.754,288.689 210.151 C 289.740 209.242,293.466 207.607,294.515 207.594 C 295.363 207.583,297.740 206.620,299.600 205.532 C 300.590 204.953,303.020 203.983,305.000 203.377 C 306.980 202.771,309.140 201.882,309.800 201.401 C 310.945 200.566,315.971 198.802,317.211 198.799 C 317.924 198.797,319.870 197.613,321.100 196.433 L 322.000 195.569 321.994 138.884 C 321.991 107.708,321.856 81.997,321.694 81.749 C 321.069 80.789,316.845 80.648,288.000 80.625 L 258.200 80.600 256.200 79.223 C 255.100 78.466,254.137 77.691,254.059 77.501 C 253.982 77.310,253.460 76.696,252.899 76.136 C 251.506 74.743,251.374 70.251,252.654 67.800 C 253.403 66.364,253.518 65.234,253.768 56.800 C 253.921 51.630,254.212 42.630,254.414 36.800 C 254.616 30.970,254.903 20.305,255.050 13.100 L 255.318 0.000 205.003 0.000 L 154.689 0.000 154.965 13.700 " stroke="none" fill="#fbfafb" fill-rule="evenodd"></path><path id="path3" d="M149.749 9.700 C 150.113 22.975,150.347 28.012,150.784 32.000 C 152.925 51.544,153.364 72.502,151.681 74.800 C 151.600 74.910,137.374 75.090,120.067 75.200 C 85.082 75.422,86.855 75.274,85.307 78.107 C 84.429 79.713,83.951 192.724,84.805 196.697 C 85.282 198.917,86.535 200.521,88.633 201.600 C 89.275 201.930,90.111 202.479,90.490 202.821 C 91.152 203.415,94.166 204.523,98.000 205.581 C 99.774 206.071,100.086 206.206,102.555 207.556 C 103.240 207.931,104.610 208.475,105.600 208.765 C 108.401 209.586,109.613 210.041,112.200 211.239 C 113.520 211.851,116.490 212.980,118.800 213.748 C 121.110 214.517,124.330 215.698,125.955 216.373 C 127.580 217.048,129.209 217.600,129.575 217.600 C 129.941 217.600,130.411 217.743,130.620 217.918 C 130.829 218.093,131.720 218.480,132.600 218.778 C 133.480 219.075,134.634 219.602,135.166 219.948 C 136.215 220.632,139.453 221.887,141.453 222.383 C 142.734 222.701,143.919 223.250,146.407 224.676 C 147.859 225.508,151.690 226.915,153.800 227.391 C 154.460 227.540,155.630 228.052,156.400 228.529 C 157.706 229.338,159.094 229.905,163.600 231.469 C 164.590 231.813,165.490 232.208,165.600 232.348 C 166.053 232.922,168.830 233.971,172.200 234.839 C 173.300 235.122,175.299 235.946,176.642 236.670 C 177.985 237.394,180.773 238.538,182.837 239.212 C 184.901 239.887,186.728 240.655,186.896 240.919 C 189.540 245.064,189.605 244.765,185.602 246.848 C 184.173 247.592,182.664 248.506,182.248 248.880 C 181.832 249.254,180.882 249.850,180.136 250.204 C 179.390 250.558,178.160 251.467,177.403 252.224 C 176.646 252.981,175.923 253.600,175.797 253.600 C 175.670 253.600,175.219 253.924,174.793 254.321 C 174.368 254.717,173.340 255.413,172.510 255.868 C 169.462 257.536,166.324 259.563,164.882 260.795 C 164.069 261.489,162.384 262.601,161.138 263.265 C 159.892 263.929,158.513 264.808,158.073 265.218 C 157.633 265.628,156.278 266.600,155.062 267.378 C 153.846 268.156,152.615 269.109,152.325 269.496 C 152.036 269.883,150.810 270.868,149.600 271.685 C 148.390 272.502,146.230 274.076,144.800 275.183 C 143.370 276.289,142.020 277.196,141.800 277.198 C 141.580 277.200,140.775 277.736,140.010 278.390 C 139.246 279.043,138.076 279.798,137.410 280.068 C 136.745 280.338,134.640 281.603,132.734 282.879 C 130.828 284.156,129.111 285.200,128.918 285.200 C 128.726 285.200,127.772 285.920,126.800 286.800 C 125.828 287.680,124.877 288.400,124.688 288.400 C 124.248 288.400,120.788 290.750,120.000 291.585 C 119.670 291.935,118.890 292.545,118.267 292.941 C 117.644 293.337,116.459 294.272,115.634 295.017 C 114.319 296.205,112.657 297.217,108.276 299.497 C 106.338 300.506,104.200 300.594,102.930 299.717 C 101.737 298.893,99.220 297.893,94.600 296.406 C 93.060 295.910,91.710 295.389,91.600 295.247 C 91.315 294.879,88.209 293.436,85.400 292.365 C 84.080 291.861,82.910 291.324,82.800 291.171 C 82.488 290.737,79.247 289.327,76.600 288.474 C 75.280 288.048,73.120 287.167,71.800 286.515 C 70.480 285.864,68.050 284.907,66.400 284.389 C 64.750 283.870,62.922 283.121,62.338 282.723 C 61.754 282.325,61.077 282.000,60.833 282.000 C 60.589 282.000,60.077 281.844,59.695 281.654 C 59.313 281.463,58.370 281.086,57.600 280.816 C 56.139 280.304,54.369 279.606,50.000 277.816 C 48.570 277.231,46.590 276.471,45.600 276.128 C 43.585 275.431,40.306 273.963,40.000 273.622 C 39.702 273.289,38.089 272.583,35.400 271.607 C 34.080 271.128,32.640 270.539,32.200 270.298 C 30.810 269.537,28.234 268.300,27.300 267.943 C 26.805 267.754,25.995 267.445,25.500 267.255 C 24.069 266.707,21.902 265.691,20.600 264.956 C 18.851 263.969,18.448 263.805,15.800 262.996 C 14.480 262.593,12.950 261.972,12.400 261.617 C 7.943 258.738,0.000 256.805,0.000 258.600 C 0.000 259.387,0.203 259.600,0.954 259.600 C 2.317 259.600,5.847 260.785,8.310 262.068 C 9.470 262.673,11.047 263.285,11.814 263.429 C 12.581 263.573,13.307 263.850,13.428 264.045 C 13.549 264.240,13.910 264.400,14.232 264.400 C 14.553 264.400,16.298 265.090,18.108 265.934 C 19.919 266.778,22.480 267.889,23.800 268.402 C 25.120 268.916,26.650 269.635,27.200 270.000 C 27.750 270.365,29.280 271.067,30.600 271.561 C 31.920 272.054,34.620 273.192,36.600 274.089 C 38.580 274.986,40.650 275.894,41.200 276.107 C 41.750 276.319,42.513 276.652,42.895 276.847 C 43.277 277.041,43.783 277.200,44.020 277.200 C 44.257 277.200,45.564 277.727,46.925 278.371 C 48.286 279.015,50.222 279.811,51.226 280.141 C 52.966 280.712,54.708 281.465,60.275 284.050 C 61.636 284.683,62.928 285.200,63.146 285.200 C 63.364 285.200,66.030 286.247,69.071 287.528 C 72.112 288.808,75.230 290.090,76.000 290.377 C 76.770 290.664,78.867 291.597,80.661 292.450 C 82.454 293.302,84.123 294.000,84.370 294.000 C 84.616 294.000,86.209 294.696,87.909 295.546 C 89.609 296.396,92.170 297.498,93.600 297.995 C 95.030 298.492,97.280 299.390,98.600 299.991 C 102.760 301.884,103.179 302.000,105.832 302.000 C 108.206 302.000,115.540 298.138,117.200 296.014 C 117.310 295.873,118.570 294.957,120.000 293.979 C 121.430 293.001,122.690 292.095,122.800 291.968 C 122.910 291.840,124.440 290.771,126.200 289.592 C 127.960 288.412,129.638 287.212,129.929 286.924 C 130.219 286.636,130.611 286.400,130.800 286.400 C 130.989 286.400,131.381 286.169,131.671 285.886 C 131.962 285.603,132.763 285.018,133.450 284.586 C 134.138 284.154,135.488 283.278,136.450 282.641 C 137.413 282.003,139.460 280.658,141.000 279.651 C 142.540 278.644,143.890 277.705,144.000 277.563 C 144.110 277.422,145.215 276.660,146.455 275.870 C 147.695 275.080,148.955 274.195,149.255 273.903 C 149.555 273.612,150.610 272.896,151.600 272.312 C 152.590 271.729,153.850 270.828,154.400 270.310 C 155.633 269.150,163.853 263.600,164.339 263.600 C 164.533 263.600,165.301 263.053,166.046 262.384 C 166.791 261.716,168.603 260.455,170.074 259.582 C 171.544 258.709,172.984 257.763,173.274 257.479 C 173.563 257.194,174.700 256.352,175.800 255.607 C 176.900 254.862,177.890 254.127,178.000 253.972 C 178.286 253.571,187.566 247.434,189.001 246.698 C 191.188 245.576,191.820 244.564,191.275 243.057 C 191.014 242.334,190.800 241.462,190.800 241.118 C 190.800 240.460,189.551 239.490,188.200 239.101 C 186.272 238.545,182.354 237.042,179.400 235.726 C 175.252 233.879,174.935 233.750,172.800 233.051 C 171.810 232.727,170.010 232.023,168.800 231.486 C 167.590 230.950,165.430 230.113,164.000 229.627 C 162.570 229.141,160.320 228.227,159.000 227.595 C 157.680 226.964,154.845 225.870,152.700 225.164 C 150.555 224.458,148.800 223.727,148.800 223.540 C 148.800 223.353,148.476 223.200,148.080 223.200 C 147.684 223.200,147.189 223.041,146.980 222.847 C 146.771 222.652,145.430 222.087,144.000 221.590 C 142.570 221.094,140.320 220.205,139.000 219.614 C 137.680 219.024,135.970 218.311,135.200 218.030 C 134.430 217.749,133.440 217.366,133.000 217.180 C 132.560 216.993,131.390 216.575,130.400 216.250 C 129.410 215.926,127.880 215.353,127.000 214.977 C 125.241 214.227,119.581 212.111,118.000 211.614 C 117.450 211.441,116.010 210.848,114.800 210.296 C 113.590 209.744,111.970 209.073,111.200 208.806 C 108.571 207.892,107.211 207.340,103.600 205.721 C 102.170 205.080,100.190 204.324,99.200 204.041 C 94.895 202.811,89.036 199.921,87.396 198.219 C 86.050 196.822,86.000 194.663,86.000 138.341 C 86.000 82.508,86.043 80.578,87.338 78.877 C 88.592 77.230,89.178 77.200,120.189 77.200 C 151.587 77.200,151.573 77.201,153.596 75.323 L 154.600 74.390 154.496 65.095 C 154.438 59.983,154.221 53.190,154.013 50.000 C 153.805 46.810,153.440 40.420,153.202 35.800 C 152.965 31.180,152.600 24.610,152.393 21.200 C 152.186 17.790,151.897 11.625,151.751 7.500 L 151.486 0.000 150.485 -0.000 L 149.484 -0.000 149.749 9.700 M258.257 8.500 C 258.114 13.175,257.822 20.420,257.608 24.600 C 257.395 28.780,257.037 37.150,256.812 43.200 C 256.588 49.250,256.197 57.620,255.944 61.800 C 255.145 74.994,255.162 75.116,257.898 76.464 L 259.800 77.400 290.549 77.492 C 323.637 77.591,321.864 77.467,323.126 79.771 C 323.853 81.096,324.203 193.107,323.492 196.449 C 322.944 199.020,320.503 200.652,314.000 202.795 C 312.570 203.267,310.995 203.821,310.500 204.026 C 310.005 204.232,309.195 204.561,308.700 204.758 C 308.205 204.955,306.810 205.574,305.600 206.133 C 304.390 206.692,301.960 207.621,300.200 208.198 C 298.440 208.774,296.049 209.686,294.886 210.224 C 292.799 211.190,289.907 212.294,286.400 213.464 C 285.410 213.794,284.240 214.211,283.800 214.391 C 280.084 215.909,278.678 216.448,276.970 217.010 C 275.887 217.367,273.533 218.366,271.739 219.229 C 269.946 220.093,268.233 220.800,267.933 220.800 C 266.755 220.800,260.800 223.219,260.800 223.698 C 260.800 223.864,260.476 224.000,260.080 224.000 C 259.684 224.000,259.189 224.159,258.980 224.353 C 258.771 224.548,257.430 225.103,256.000 225.587 C 254.570 226.070,252.500 226.890,251.400 227.408 C 250.300 227.926,247.960 228.821,246.200 229.398 C 244.440 229.976,242.089 230.884,240.975 231.416 C 239.862 231.949,237.830 232.743,236.462 233.180 C 235.093 233.618,233.394 234.230,232.686 234.541 C 231.979 234.852,230.590 235.464,229.600 235.900 C 228.610 236.336,226.630 237.098,225.200 237.593 C 223.770 238.088,222.429 238.652,222.220 238.847 C 222.011 239.041,221.516 239.200,221.120 239.200 C 220.724 239.200,220.400 239.367,220.400 239.571 C 220.400 239.775,220.099 240.000,219.730 240.071 C 219.283 240.157,218.890 240.930,218.548 242.400 C 217.954 244.955,218.350 245.490,222.253 247.405 C 223.383 247.960,224.913 248.952,225.653 249.609 C 226.394 250.267,227.919 251.331,229.042 251.974 C 230.166 252.616,231.336 253.390,231.642 253.693 C 231.949 253.996,233.370 255.031,234.800 255.992 C 236.230 256.953,237.490 257.855,237.600 257.996 C 237.993 258.501,241.552 260.800,241.939 260.800 C 242.156 260.800,242.393 260.958,242.467 261.152 C 242.540 261.345,244.130 262.460,246.000 263.630 C 247.870 264.800,249.978 266.249,250.684 266.852 C 251.390 267.454,252.581 268.238,253.330 268.593 C 254.079 268.949,255.031 269.555,255.446 269.939 C 255.861 270.324,257.370 271.425,258.800 272.386 C 260.230 273.347,262.030 274.649,262.800 275.280 C 264.662 276.806,264.763 276.875,266.505 277.794 C 267.333 278.230,268.450 278.995,268.988 279.494 C 269.525 279.992,270.076 280.400,270.210 280.400 C 270.487 280.400,274.090 282.808,274.400 283.200 C 274.761 283.656,278.336 286.000,278.672 286.000 C 278.852 286.001,279.540 286.470,280.200 287.044 C 280.860 287.617,282.390 288.721,283.600 289.496 C 284.810 290.272,285.890 291.031,286.000 291.183 C 286.320 291.627,291.124 294.800,291.478 294.802 C 291.655 294.803,292.340 295.306,293.000 295.920 C 293.660 296.535,295.100 297.645,296.200 298.388 C 297.300 299.131,298.685 300.138,299.278 300.626 C 302.140 302.977,309.735 303.085,311.600 300.800 C 311.910 300.421,315.181 298.968,317.400 298.225 C 318.500 297.857,320.660 296.956,322.200 296.223 C 323.740 295.491,326.080 294.493,327.400 294.007 C 330.406 292.899,331.536 292.395,332.800 291.600 C 333.350 291.254,334.520 290.740,335.400 290.459 C 336.280 290.177,337.360 289.803,337.800 289.627 C 339.177 289.076,340.549 288.504,342.000 287.874 C 342.770 287.541,344.660 286.784,346.200 286.194 C 347.740 285.604,350.350 284.490,352.000 283.719 C 353.650 282.949,356.350 281.782,358.000 281.127 C 359.650 280.473,362.080 279.425,363.400 278.798 C 366.154 277.492,369.126 276.414,370.000 276.405 C 370.330 276.402,372.310 275.544,374.400 274.500 C 376.490 273.455,378.906 272.352,379.768 272.050 C 380.630 271.747,382.175 271.004,383.201 270.399 C 384.227 269.794,386.221 268.907,387.633 268.428 C 389.045 267.949,391.056 267.116,392.102 266.576 C 394.754 265.208,397.171 264.413,398.700 264.406 C 399.918 264.400,400.000 264.312,400.000 263.000 C 400.000 261.478,399.134 261.166,397.119 261.964 C 396.613 262.164,395.120 262.628,393.800 262.995 C 391.493 263.637,388.016 265.119,387.600 265.639 C 387.490 265.776,386.263 266.289,384.874 266.779 C 383.484 267.270,381.126 268.375,379.634 269.235 C 378.141 270.096,376.718 270.800,376.472 270.800 C 376.226 270.800,375.434 271.125,374.712 271.523 C 373.990 271.920,372.770 272.492,372.000 272.793 C 371.230 273.093,370.150 273.638,369.600 274.003 C 369.050 274.367,367.070 275.084,365.200 275.596 C 361.932 276.490,360.915 276.895,357.400 278.705 C 356.520 279.158,354.720 279.913,353.400 280.383 C 352.080 280.853,349.920 281.764,348.600 282.408 C 346.194 283.581,341.524 285.200,340.546 285.200 C 340.259 285.200,339.344 285.590,338.512 286.068 C 335.940 287.543,334.066 288.400,333.411 288.400 C 332.821 288.400,329.563 289.876,326.400 291.576 C 325.630 291.989,323.773 292.716,322.274 293.189 C 320.775 293.663,318.715 294.579,317.696 295.225 C 316.677 295.871,315.527 296.400,315.141 296.400 C 314.171 296.400,311.022 297.671,309.218 298.790 C 306.787 300.299,304.017 300.784,303.232 299.839 C 302.976 299.530,301.794 298.802,300.606 298.221 C 299.418 297.639,297.581 296.393,296.523 295.451 C 295.465 294.509,293.970 293.393,293.200 292.969 C 292.430 292.546,291.010 291.525,290.044 290.700 C 289.078 289.875,288.077 289.200,287.819 289.200 C 287.562 289.200,286.992 288.865,286.552 288.456 C 284.806 286.829,281.823 284.739,280.176 283.989 C 279.220 283.554,278.295 282.945,278.119 282.637 C 277.944 282.329,276.720 281.496,275.400 280.786 C 274.080 280.075,272.460 278.995,271.800 278.384 C 270.399 277.088,267.830 275.600,266.993 275.600 C 266.673 275.600,265.506 274.700,264.400 273.600 C 263.294 272.500,262.166 271.600,261.893 271.600 C 261.621 271.600,260.478 270.733,259.355 269.672 C 258.232 268.612,256.639 267.425,255.815 267.034 C 254.991 266.643,253.661 265.736,252.859 265.019 C 252.056 264.301,250.770 263.418,250.000 263.056 C 249.230 262.694,248.042 261.875,247.361 261.235 C 246.679 260.596,244.969 259.491,243.561 258.781 C 242.152 258.070,240.730 257.190,240.400 256.826 C 239.550 255.885,237.361 254.400,236.825 254.400 C 236.577 254.400,235.738 253.764,234.961 252.988 C 234.184 252.211,232.840 251.268,231.974 250.893 C 231.108 250.518,230.400 250.074,230.400 249.906 C 230.400 249.738,230.157 249.600,229.859 249.600 C 229.562 249.600,228.790 249.094,228.143 248.476 C 227.496 247.858,225.849 246.837,224.483 246.206 C 221.717 244.929,221.640 244.751,222.859 242.467 C 223.701 240.888,226.544 239.200,228.359 239.200 C 229.445 239.200,233.230 237.687,234.761 236.641 C 235.552 236.100,237.200 235.477,238.422 235.257 C 240.946 234.802,243.728 233.788,245.200 232.788 C 245.750 232.414,246.830 231.908,247.600 231.663 C 252.561 230.084,254.450 229.380,256.400 228.382 C 257.610 227.763,259.680 226.854,261.000 226.363 C 262.320 225.871,264.174 224.958,265.120 224.334 C 266.066 223.710,267.098 223.200,267.414 223.200 C 268.880 223.200,272.098 222.075,275.200 220.478 C 278.601 218.727,283.744 216.800,285.016 216.800 C 285.388 216.800,286.526 216.375,287.546 215.856 C 289.963 214.626,291.017 214.201,293.200 213.576 C 294.190 213.293,295.171 212.912,295.380 212.730 C 295.589 212.549,296.179 212.400,296.691 212.400 C 297.204 212.400,298.653 211.893,299.911 211.272 C 301.170 210.652,303.010 209.911,304.000 209.626 C 306.928 208.781,309.958 207.547,310.911 206.812 C 311.400 206.434,313.499 205.718,315.575 205.219 C 320.191 204.111,321.208 203.582,323.851 200.911 C 324.722 200.030,325.206 199.080,325.378 197.911 C 325.517 196.970,325.809 195.480,326.029 194.600 C 326.661 192.064,326.303 82.410,325.653 79.656 C 325.122 77.401,323.981 75.914,322.366 75.371 C 321.835 75.193,308.159 75.093,291.975 75.150 C 275.791 75.206,262.062 75.130,261.466 74.981 C 259.845 74.574,258.233 70.915,258.774 68.871 C 258.989 68.062,259.353 58.220,259.583 47.000 C 259.960 28.602,260.205 21.557,261.038 5.100 L 261.296 0.000 259.907 0.000 L 258.518 0.000 258.257 8.500 M100.400 316.838 C 98.530 317.742,96.687 318.643,96.305 318.841 C 95.923 319.038,95.425 319.200,95.197 319.200 C 94.970 319.200,93.302 319.888,91.492 320.728 C 89.681 321.569,87.390 322.508,86.400 322.814 C 85.410 323.121,82.859 324.233,80.730 325.286 C 78.602 326.339,76.665 327.200,76.425 327.200 C 76.185 327.200,75.677 327.362,75.295 327.560 C 73.486 328.497,67.186 331.189,65.400 331.788 C 63.419 332.452,62.781 332.711,59.104 334.353 C 58.062 334.819,57.068 335.200,56.897 335.200 C 56.725 335.200,54.737 336.100,52.479 337.200 C 50.221 338.300,48.145 339.200,47.866 339.200 C 47.588 339.200,47.189 339.349,46.980 339.530 C 46.771 339.712,45.790 340.104,44.800 340.400 C 43.810 340.697,41.070 341.809,38.711 342.870 C 36.352 343.932,34.210 344.800,33.951 344.800 C 33.692 344.800,31.842 345.588,29.840 346.552 C 27.838 347.516,25.480 348.612,24.600 348.988 C 23.720 349.364,22.142 350.108,21.094 350.641 C 20.046 351.174,17.796 352.074,16.094 352.642 C 14.392 353.210,11.560 354.354,9.800 355.185 C 5.057 357.424,2.431 358.400,1.147 358.400 C 0.076 358.400,0.000 358.505,0.000 360.000 C 0.000 362.055,1.243 362.166,4.583 360.409 C 5.828 359.754,7.601 359.023,8.523 358.785 C 10.686 358.227,13.581 356.912,14.600 356.026 C 15.040 355.643,16.480 355.082,17.800 354.779 C 19.982 354.279,24.711 352.283,25.200 351.656 C 25.544 351.216,27.165 350.400,27.695 350.401 C 27.973 350.402,30.000 349.528,32.200 348.458 C 36.583 346.326,40.245 344.800,40.975 344.800 C 41.233 344.800,42.244 344.300,43.222 343.688 C 44.200 343.077,46.350 342.153,48.000 341.634 C 53.153 340.016,54.371 339.518,55.463 338.580 C 56.045 338.079,57.349 337.453,58.361 337.189 C 61.494 336.370,62.973 335.916,63.695 335.551 C 64.077 335.358,64.584 335.200,64.823 335.200 C 65.062 335.200,65.502 334.955,65.801 334.656 C 66.100 334.357,67.932 333.602,69.872 332.978 C 71.813 332.354,74.030 331.488,74.800 331.054 C 77.096 329.760,79.134 328.800,79.585 328.800 C 80.274 328.800,83.670 327.143,85.472 325.928 C 86.392 325.307,87.418 324.800,87.753 324.800 C 89.717 324.800,93.628 323.376,95.600 321.943 C 96.150 321.544,97.705 320.867,99.055 320.439 C 100.406 320.012,102.206 319.320,103.055 318.903 C 105.854 317.527,110.009 318.950,113.705 322.551 C 114.417 323.246,115.855 324.244,116.900 324.770 C 117.945 325.295,118.800 325.871,118.800 326.048 C 118.800 326.364,123.339 329.600,123.782 329.600 C 123.906 329.600,124.557 330.126,125.230 330.768 C 125.902 331.411,127.295 332.327,128.326 332.805 C 129.357 333.283,130.740 334.183,131.400 334.805 C 132.060 335.427,133.678 336.523,134.995 337.241 C 136.313 337.959,137.711 338.845,138.102 339.209 C 138.493 339.574,139.215 340.050,139.707 340.267 C 142.299 341.412,144.400 342.544,144.400 342.794 C 144.400 343.365,145.847 344.665,147.626 345.693 C 148.631 346.273,150.161 347.385,151.026 348.164 C 151.892 348.944,153.196 349.869,153.924 350.221 C 154.652 350.572,155.732 351.405,156.324 352.070 C 156.916 352.736,157.940 353.554,158.600 353.887 C 159.260 354.221,160.717 355.193,161.837 356.047 C 162.957 356.901,164.067 357.600,164.304 357.600 C 164.540 357.600,164.793 357.735,164.867 357.900 C 164.940 358.065,165.718 358.560,166.595 359.000 C 167.472 359.440,168.552 360.189,168.995 360.665 C 169.438 361.140,170.610 361.968,171.600 362.505 C 172.590 363.042,174.004 364.047,174.742 364.740 C 175.481 365.433,176.336 366.000,176.642 366.000 C 176.949 366.000,177.200 366.153,177.200 366.339 C 177.200 366.526,177.880 366.985,178.711 367.360 C 179.543 367.735,180.853 368.636,181.624 369.363 C 182.394 370.090,183.705 370.931,184.538 371.232 C 186.386 371.900,186.652 372.207,187.574 374.730 L 188.303 376.722 186.851 377.335 C 186.053 377.672,184.410 378.173,183.200 378.447 C 181.990 378.722,180.829 379.093,180.620 379.273 C 180.411 379.453,180.008 379.600,179.725 379.600 C 179.441 379.600,178.864 379.895,178.442 380.257 C 178.021 380.618,175.818 381.535,173.547 382.294 C 171.276 383.053,168.964 383.994,168.409 384.383 C 167.346 385.129,166.709 385.360,161.132 387.019 C 159.224 387.587,157.273 388.390,156.796 388.803 C 156.319 389.217,154.705 389.934,153.208 390.397 C 151.712 390.861,149.523 391.817,148.344 392.524 C 147.165 393.230,145.210 394.056,144.000 394.358 C 141.609 394.957,136.542 397.022,136.000 397.619 C 135.890 397.740,134.900 398.134,133.800 398.494 C 129.792 399.804,127.342 400.785,124.600 402.177 C 123.060 402.958,121.440 403.600,121.000 403.604 C 119.807 403.614,113.430 405.910,113.271 406.387 C 113.195 406.614,112.885 406.800,112.581 406.800 C 112.277 406.800,111.257 407.051,110.314 407.357 C 109.371 407.664,107.362 408.304,105.850 408.779 C 104.337 409.254,102.855 409.888,102.555 410.188 C 102.040 410.703,100.513 411.253,96.400 412.406 C 94.003 413.078,92.400 413.737,92.400 414.051 C 92.400 414.192,91.365 414.721,90.100 415.228 C 86.987 416.474,86.124 417.123,85.085 419.000 L 84.200 420.600 84.075 476.400 C 83.932 539.800,83.913 539.086,85.798 540.971 C 87.601 542.775,86.827 542.733,121.029 542.876 C 153.445 543.012,151.204 542.834,152.324 545.360 C 152.732 546.281,152.755 548.178,152.434 554.560 C 152.212 558.982,151.933 565.255,151.814 568.500 L 151.597 574.400 152.767 574.400 C 154.154 574.400,154.170 574.296,154.686 561.800 C 155.258 547.953,155.131 542.825,154.200 542.181 C 153.760 541.876,153.135 541.396,152.810 541.114 C 152.345 540.709,145.618 540.558,121.010 540.400 C 85.482 540.172,87.335 540.358,86.718 536.966 C 86.256 534.427,86.351 424.011,86.817 422.325 C 87.443 420.058,91.200 416.800,93.188 416.800 C 93.420 416.800,94.462 416.422,95.504 415.960 C 96.547 415.498,97.805 414.958,98.300 414.760 C 98.795 414.562,99.605 414.232,100.100 414.026 C 100.595 413.821,102.170 413.260,103.600 412.780 C 105.030 412.300,106.371 411.748,106.580 411.553 C 106.789 411.359,107.284 411.200,107.680 411.200 C 108.076 411.200,108.400 411.020,108.400 410.800 C 108.400 410.580,108.646 410.400,108.947 410.400 C 109.416 410.400,110.773 409.919,114.600 408.396 C 117.165 407.375,125.302 404.360,127.000 403.801 C 128.100 403.439,130.128 402.606,131.506 401.948 C 132.885 401.291,134.955 400.485,136.106 400.157 C 137.258 399.828,139.370 399.007,140.800 398.331 C 144.289 396.682,144.680 396.527,147.024 395.862 C 148.137 395.547,150.159 394.727,151.518 394.041 C 152.876 393.356,154.846 392.514,155.894 392.170 C 156.942 391.827,158.385 391.288,159.100 390.973 C 159.815 390.658,160.985 390.141,161.700 389.824 C 162.415 389.507,164.440 388.775,166.200 388.198 C 167.960 387.621,170.300 386.732,171.400 386.221 C 175.328 384.399,177.196 383.600,177.527 383.600 C 177.838 383.600,181.416 382.211,184.200 381.009 C 184.860 380.724,186.391 380.108,187.602 379.639 C 191.553 378.110,192.207 377.330,191.614 374.857 C 191.015 372.363,190.490 371.791,187.198 370.049 C 186.209 369.525,184.770 368.613,184.000 368.021 C 183.230 367.430,181.430 366.157,180.000 365.192 C 178.570 364.228,177.220 363.283,177.000 363.092 C 175.665 361.934,168.120 356.820,167.733 356.811 C 167.477 356.805,167.207 356.650,167.133 356.468 C 167.060 356.285,165.290 354.995,163.200 353.601 C 161.110 352.208,159.310 350.949,159.200 350.804 C 159.090 350.659,157.830 349.752,156.400 348.789 C 154.970 347.827,153.451 346.715,153.025 346.319 C 152.598 345.924,152.028 345.600,151.758 345.600 C 151.488 345.600,151.207 345.458,151.133 345.285 C 151.060 345.112,150.190 344.489,149.200 343.900 C 148.210 343.311,146.682 342.193,145.805 341.415 C 144.928 340.637,143.663 339.741,142.995 339.424 C 142.327 339.107,141.245 338.387,140.590 337.823 C 139.936 337.260,138.852 336.538,138.183 336.220 C 137.513 335.902,135.623 334.649,133.983 333.437 C 132.342 332.225,130.553 331.001,130.006 330.717 C 129.459 330.433,128.739 329.982,128.406 329.715 C 126.571 328.244,118.478 322.672,117.784 322.401 C 117.335 322.227,116.710 321.773,116.395 321.394 C 115.828 320.711,110.686 317.028,109.052 316.134 C 106.756 314.879,103.987 315.104,100.400 316.838 M301.933 316.693 C 299.568 317.855,295.587 320.449,294.004 321.859 C 293.066 322.695,287.681 326.438,280.000 331.592 C 278.350 332.699,276.778 333.789,276.507 334.012 C 276.235 334.236,275.335 334.812,274.507 335.292 C 273.678 335.772,272.910 336.262,272.800 336.382 C 272.077 337.170,269.027 339.264,267.000 340.364 C 265.680 341.080,264.125 342.116,263.543 342.666 C 262.446 343.705,261.058 344.714,255.000 348.876 C 253.020 350.237,251.162 351.586,250.872 351.875 C 250.581 352.163,249.501 352.888,248.472 353.486 C 247.442 354.084,246.399 354.767,246.153 355.005 C 245.907 355.243,244.467 356.224,242.953 357.185 C 237.558 360.611,234.182 362.938,232.981 364.061 C 232.310 364.687,231.631 365.200,231.471 365.200 C 231.136 365.200,221.606 371.552,220.995 372.182 C 220.773 372.412,220.299 373.529,219.943 374.664 L 219.296 376.729 220.314 377.547 C 220.873 377.997,222.516 378.848,223.965 379.438 C 225.414 380.028,227.680 380.998,229.000 381.593 C 230.320 382.188,232.480 383.085,233.800 383.585 C 235.120 384.085,237.653 385.101,239.429 385.841 C 241.205 386.582,243.804 387.554,245.204 388.001 C 246.605 388.449,248.662 389.251,249.775 389.784 C 250.889 390.316,253.150 391.200,254.800 391.748 C 256.450 392.295,259.150 393.367,260.800 394.129 C 262.450 394.892,264.660 395.804,265.712 396.157 C 266.763 396.510,268.475 397.230,269.515 397.757 C 270.555 398.284,272.844 399.196,274.603 399.783 C 276.361 400.370,278.700 401.268,279.800 401.778 C 283.412 403.451,284.575 403.934,286.600 404.598 C 287.700 404.960,289.320 405.579,290.200 405.975 C 291.080 406.371,292.250 406.820,292.800 406.973 C 293.350 407.125,294.160 407.410,294.600 407.605 C 295.040 407.800,296.210 408.222,297.200 408.542 C 298.190 408.863,300.890 409.881,303.200 410.805 C 305.510 411.729,308.469 412.830,309.775 413.250 C 311.082 413.671,313.062 414.440,314.175 414.961 C 318.283 416.879,320.004 417.600,320.496 417.609 C 320.773 417.614,321.368 417.929,321.817 418.309 C 322.593 418.966,322.911 419.534,323.950 422.119 C 324.586 423.699,324.590 534.491,323.955 537.013 C 323.710 537.986,323.056 539.235,322.500 539.791 L 321.491 540.800 291.121 540.800 C 253.151 540.800,255.814 540.271,255.907 547.800 C 255.935 550.000,256.147 553.780,256.378 556.200 C 256.610 558.620,256.801 562.490,256.803 564.800 C 256.808 572.160,257.148 574.400,258.258 574.400 C 259.618 574.400,259.429 557.276,257.979 549.107 C 257.509 546.463,257.913 545.317,259.956 543.500 L 261.193 542.400 291.423 542.400 C 323.528 542.400,322.546 542.459,324.300 540.437 C 325.675 538.852,325.640 540.636,325.517 478.369 L 325.400 419.738 324.353 418.365 C 323.777 417.609,322.877 416.794,322.353 416.553 C 321.126 415.987,318.428 414.660,317.400 414.117 C 316.960 413.884,316.150 413.512,315.600 413.290 C 312.302 411.958,310.249 411.200,309.942 411.200 C 309.749 411.200,308.828 410.855,307.896 410.433 C 306.277 409.702,304.319 409.024,299.000 407.356 C 297.680 406.942,296.510 406.505,296.400 406.385 C 296.290 406.265,295.390 405.925,294.400 405.629 C 290.678 404.518,289.789 404.226,289.400 403.989 C 289.180 403.854,288.190 403.498,287.200 403.198 C 286.210 402.897,284.950 402.363,284.400 402.011 C 282.874 401.035,280.231 399.900,277.800 399.177 C 276.920 398.916,275.887 398.544,275.505 398.351 C 275.123 398.158,274.538 398.000,274.205 398.000 C 273.872 398.000,273.600 397.864,273.600 397.698 C 273.600 397.531,273.015 397.153,272.300 396.857 C 271.585 396.561,270.280 396.004,269.400 395.619 C 268.520 395.235,266.945 394.674,265.900 394.373 C 264.855 394.072,264.000 393.717,264.000 393.584 C 264.000 393.236,260.693 391.820,257.118 390.637 C 255.422 390.076,252.812 389.012,251.318 388.271 C 249.823 387.531,247.790 386.699,246.800 386.422 C 245.810 386.145,244.144 385.485,243.098 384.956 C 240.806 383.798,238.060 382.814,237.095 382.806 C 236.412 382.800,236.006 382.645,234.105 381.662 C 233.613 381.408,233.011 381.200,232.767 381.200 C 232.523 381.200,231.845 380.859,231.260 380.443 C 230.676 380.027,228.778 379.209,227.042 378.627 C 222.939 377.249,222.321 376.899,222.546 376.076 C 222.647 375.704,222.844 374.725,222.983 373.901 C 223.170 372.793,223.534 372.248,224.380 371.810 C 225.009 371.485,225.766 370.989,226.062 370.709 C 226.622 370.180,229.976 368.063,232.400 366.709 C 233.170 366.279,234.430 365.337,235.200 364.615 C 235.970 363.893,237.500 362.797,238.600 362.178 C 239.700 361.559,241.230 360.578,242.000 359.998 C 242.770 359.418,244.198 358.537,245.174 358.040 C 246.150 357.543,247.667 356.520,248.546 355.768 C 249.425 355.016,250.382 354.400,250.672 354.400 C 250.962 354.400,251.200 354.232,251.200 354.027 C 251.200 353.822,251.515 353.550,251.900 353.423 C 252.285 353.296,253.230 352.636,254.000 351.955 C 254.770 351.275,256.210 350.249,257.200 349.676 C 258.190 349.102,259.450 348.154,260.000 347.568 C 260.550 346.982,261.847 345.937,262.882 345.245 C 263.917 344.552,264.997 343.671,265.282 343.287 C 265.567 342.903,267.057 341.961,268.593 341.194 C 270.130 340.427,271.930 339.331,272.593 338.757 C 273.774 337.736,278.517 334.708,280.297 333.838 C 280.790 333.597,281.195 333.265,281.197 333.100 C 281.199 332.935,281.445 332.800,281.744 332.800 C 282.043 332.800,283.090 332.094,284.071 331.230 C 285.052 330.367,286.957 329.014,288.304 328.224 C 289.652 327.435,290.990 326.566,291.277 326.294 C 291.565 326.022,292.430 325.327,293.200 324.748 C 293.970 324.170,295.230 323.138,296.000 322.455 C 296.770 321.772,297.522 321.210,297.671 321.206 C 297.821 321.203,298.181 320.975,298.471 320.700 C 298.762 320.425,299.450 319.998,300.000 319.751 C 300.550 319.504,301.829 318.904,302.842 318.417 C 304.865 317.447,306.161 317.600,309.896 319.251 C 310.828 319.663,311.804 320.000,312.065 320.000 C 312.325 320.000,314.233 320.819,316.304 321.819 C 318.374 322.820,320.914 323.972,321.948 324.380 C 322.982 324.787,324.991 325.741,326.414 326.499 C 327.836 327.258,329.810 328.101,330.800 328.372 C 334.988 329.521,335.618 329.757,336.373 330.461 C 336.809 330.867,337.357 331.200,337.589 331.200 C 337.821 331.200,338.368 331.380,338.805 331.600 C 339.242 331.820,339.958 332.180,340.395 332.400 C 340.832 332.620,341.541 332.800,341.971 332.800 C 342.401 332.800,342.864 332.980,343.000 333.200 C 343.136 333.420,343.513 333.600,343.838 333.600 C 344.162 333.600,344.909 333.915,345.496 334.300 C 346.749 335.120,349.101 335.985,350.104 335.994 C 350.952 336.001,356.378 338.318,356.800 338.852 C 356.910 338.992,357.810 339.387,358.800 339.731 C 364.258 341.627,365.701 342.208,368.800 343.759 C 370.670 344.694,373.010 345.685,374.000 345.961 C 374.990 346.236,376.520 346.798,377.400 347.210 C 379.031 347.974,386.266 351.517,388.800 352.793 C 389.570 353.181,391.367 353.908,392.793 354.408 C 394.219 354.909,395.980 355.652,396.705 356.059 C 398.789 357.229,400.000 357.061,400.000 355.600 C 400.000 354.622,399.834 354.400,399.098 354.400 C 397.933 354.400,393.667 352.848,389.839 351.031 C 388.180 350.244,386.726 349.600,386.607 349.600 C 386.197 349.600,382.597 347.858,381.600 347.177 C 381.050 346.802,379.790 346.220,378.800 345.885 C 375.639 344.815,373.467 343.953,370.800 342.712 C 367.437 341.147,366.989 340.965,364.600 340.198 C 363.500 339.844,361.340 338.954,359.800 338.219 C 356.720 336.749,351.730 334.643,347.400 332.985 C 344.333 331.811,342.827 331.181,339.800 329.805 C 335.588 327.890,334.754 327.552,332.326 326.776 C 330.951 326.337,329.459 325.745,329.013 325.460 C 328.566 325.175,327.390 324.626,326.400 324.238 C 323.250 323.006,319.913 321.515,319.600 321.200 C 319.230 320.828,317.418 320.059,314.835 319.177 C 313.425 318.696,311.355 317.808,310.235 317.204 C 307.180 315.555,304.575 315.395,301.933 316.693 " stroke="none" fill="#8b6c90" fill-rule="evenodd"></path><path id="path4" d="M151.751 7.500 C 151.897 11.625,152.186 17.790,152.393 21.200 C 152.600 24.610,152.965 31.180,153.202 35.800 C 153.440 40.420,153.805 46.810,154.013 50.000 C 154.221 53.190,154.438 59.983,154.496 65.095 L 154.600 74.390 153.596 75.323 C 151.573 77.201,151.587 77.200,120.189 77.200 C 89.178 77.200,88.592 77.230,87.338 78.877 C 86.043 80.578,86.000 82.508,86.000 138.341 C 86.000 194.663,86.050 196.822,87.396 198.219 C 89.036 199.921,94.895 202.811,99.200 204.041 C 100.190 204.324,102.170 205.080,103.600 205.721 C 105.030 206.362,106.605 207.047,107.100 207.243 C 107.595 207.440,108.405 207.762,108.900 207.960 C 109.395 208.157,110.430 208.538,111.200 208.806 C 111.970 209.073,113.590 209.744,114.800 210.296 C 116.010 210.848,117.450 211.441,118.000 211.614 C 119.581 212.111,125.241 214.227,127.000 214.977 C 127.880 215.353,129.410 215.926,130.400 216.250 C 131.390 216.575,132.560 216.993,133.000 217.180 C 133.440 217.366,134.430 217.749,135.200 218.030 C 135.970 218.311,137.680 219.024,139.000 219.614 C 140.320 220.205,142.570 221.094,144.000 221.590 C 145.430 222.087,146.771 222.652,146.980 222.847 C 147.189 223.041,147.684 223.200,148.080 223.200 C 148.476 223.200,148.800 223.353,148.800 223.540 C 148.800 223.727,150.555 224.458,152.700 225.164 C 154.845 225.870,157.680 226.964,159.000 227.595 C 160.320 228.227,162.570 229.141,164.000 229.627 C 165.430 230.113,167.590 230.950,168.800 231.486 C 170.010 232.023,171.810 232.727,172.800 233.051 C 174.935 233.750,175.252 233.879,179.400 235.726 C 182.354 237.042,186.272 238.545,188.200 239.101 C 189.551 239.490,190.800 240.460,190.800 241.118 C 190.800 241.462,191.014 242.334,191.275 243.057 C 191.820 244.564,191.188 245.576,189.001 246.698 C 187.566 247.434,178.286 253.571,178.000 253.972 C 177.890 254.127,176.900 254.862,175.800 255.607 C 174.700 256.352,173.563 257.194,173.274 257.479 C 172.984 257.763,171.544 258.709,170.074 259.582 C 168.603 260.455,166.791 261.716,166.046 262.384 C 165.301 263.053,164.533 263.600,164.339 263.600 C 163.853 263.600,155.633 269.150,154.400 270.310 C 153.850 270.828,152.590 271.729,151.600 272.312 C 150.610 272.896,149.555 273.612,149.255 273.903 C 148.955 274.195,147.695 275.080,146.455 275.870 C 145.215 276.660,144.110 277.422,144.000 277.563 C 143.890 277.705,142.540 278.644,141.000 279.651 C 139.460 280.658,137.413 282.003,136.450 282.641 C 135.488 283.278,134.138 284.154,133.450 284.586 C 132.763 285.018,131.962 285.603,131.671 285.886 C 131.381 286.169,130.989 286.400,130.800 286.400 C 130.611 286.400,130.219 286.636,129.929 286.924 C 129.638 287.212,127.960 288.412,126.200 289.592 C 124.440 290.771,122.910 291.840,122.800 291.968 C 122.690 292.095,121.430 293.001,120.000 293.979 C 118.570 294.957,117.310 295.873,117.200 296.014 C 115.540 298.138,108.206 302.000,105.832 302.000 C 103.179 302.000,102.760 301.884,98.600 299.991 C 97.280 299.390,95.030 298.492,93.600 297.995 C 92.170 297.498,89.609 296.396,87.909 295.546 C 86.209 294.696,84.616 294.000,84.370 294.000 C 84.123 294.000,82.454 293.302,80.661 292.450 C 78.867 291.597,76.770 290.664,76.000 290.377 C 75.230 290.090,72.112 288.808,69.071 287.528 C 66.030 286.247,63.364 285.200,63.146 285.200 C 62.928 285.200,61.636 284.683,60.275 284.050 C 54.708 281.465,52.966 280.712,51.226 280.141 C 50.222 279.811,48.286 279.015,46.925 278.371 C 45.564 277.727,44.257 277.200,44.020 277.200 C 43.783 277.200,43.277 277.041,42.895 276.847 C 42.513 276.652,41.750 276.319,41.200 276.107 C 40.650 275.894,38.580 274.986,36.600 274.089 C 34.620 273.192,31.920 272.054,30.600 271.561 C 29.280 271.067,27.750 270.365,27.200 270.000 C 26.650 269.635,25.120 268.916,23.800 268.402 C 22.480 267.889,19.919 266.778,18.108 265.934 C 16.298 265.090,14.553 264.400,14.232 264.400 C 13.910 264.400,13.549 264.240,13.428 264.045 C 13.307 263.850,12.581 263.573,11.814 263.429 C 11.047 263.285,9.470 262.673,8.310 262.068 C 5.847 260.785,2.317 259.600,0.954 259.600 C -0.755 259.600,-0.437 262.644,1.300 262.917 C 2.979 263.181,11.334 266.048,11.614 266.457 C 11.732 266.628,12.542 267.063,13.414 267.423 C 14.286 267.782,15.540 268.306,16.200 268.586 C 16.860 268.867,18.210 269.320,19.200 269.593 C 20.998 270.089,24.022 271.497,24.400 272.014 C 24.627 272.325,28.784 273.783,30.600 274.189 C 31.260 274.336,32.250 274.866,32.800 275.365 C 33.996 276.451,36.467 277.358,40.472 278.181 C 41.062 278.302,41.804 278.661,42.122 278.980 C 43.538 280.396,47.447 281.982,51.240 282.682 C 51.812 282.787,52.872 283.378,53.595 283.996 C 54.339 284.631,56.406 285.594,58.355 286.215 C 60.250 286.818,62.009 287.569,62.265 287.884 C 62.818 288.565,68.246 290.767,69.422 290.786 C 69.874 290.794,71.044 291.297,72.022 291.905 C 74.626 293.522,79.761 295.600,81.156 295.600 C 81.431 295.600,82.423 296.128,83.361 296.773 C 84.299 297.419,86.582 298.442,88.433 299.047 C 90.285 299.652,92.340 300.533,93.000 301.005 C 93.660 301.477,95.460 302.251,97.000 302.726 C 104.501 305.037,104.880 305.121,106.147 304.758 C 106.833 304.561,107.812 304.400,108.323 304.400 C 109.638 304.400,114.276 302.084,115.127 301.002 C 115.520 300.503,116.759 299.629,117.881 299.060 C 119.003 298.492,120.304 297.539,120.773 296.944 C 121.241 296.348,122.374 295.525,123.289 295.115 C 124.661 294.501,128.012 292.116,128.800 291.193 C 128.910 291.064,129.699 290.633,130.552 290.236 C 131.406 289.838,132.665 288.902,133.350 288.156 C 134.034 287.410,134.838 286.800,135.135 286.800 C 135.794 286.800,137.834 285.414,139.222 284.024 C 139.784 283.461,141.044 282.576,142.022 282.057 C 143.000 281.539,144.430 280.454,145.200 279.647 C 145.970 278.840,147.345 277.937,148.256 277.641 C 149.167 277.344,150.427 276.656,151.056 276.111 C 152.657 274.726,156.198 272.400,156.706 272.400 C 156.939 272.400,157.585 271.858,158.143 271.195 C 158.700 270.532,159.980 269.637,160.985 269.206 C 161.991 268.775,163.261 267.975,163.808 267.428 C 164.355 266.881,166.054 265.703,167.584 264.809 C 169.114 263.916,170.600 262.849,170.887 262.439 C 171.175 262.029,172.267 261.291,173.314 260.799 C 174.361 260.306,175.618 259.424,176.109 258.837 C 176.599 258.251,177.540 257.508,178.200 257.186 C 178.860 256.865,179.490 256.502,179.600 256.381 C 179.710 256.260,180.430 255.727,181.200 255.197 C 181.970 254.667,182.820 253.932,183.089 253.564 C 183.358 253.196,184.326 252.597,185.239 252.231 C 186.152 251.866,187.466 250.983,188.159 250.270 C 188.852 249.556,190.044 248.719,190.809 248.410 C 196.156 246.251,197.395 241.897,193.538 238.826 C 192.403 237.923,191.008 237.082,190.438 236.958 C 189.867 236.834,187.960 236.033,186.200 235.177 C 184.440 234.322,181.592 233.212,179.871 232.711 C 178.149 232.210,176.430 231.530,176.050 231.200 C 174.954 230.248,173.672 229.600,172.885 229.600 C 172.486 229.600,171.989 229.449,171.780 229.264 C 171.571 229.080,170.320 228.685,169.000 228.388 C 167.680 228.090,166.510 227.725,166.400 227.576 C 166.290 227.427,165.210 226.804,164.000 226.191 C 161.837 225.096,160.627 224.696,157.349 223.996 C 156.441 223.801,155.068 223.215,154.298 222.692 C 153.528 222.170,151.571 221.347,149.949 220.863 C 145.185 219.442,144.211 219.104,144.000 218.797 C 143.519 218.101,140.311 216.831,136.814 215.953 C 134.449 215.359,132.663 214.664,132.055 214.101 C 131.521 213.605,130.760 213.200,130.365 213.200 C 129.970 213.200,129.536 213.020,129.400 212.800 C 129.264 212.580,128.853 212.400,128.488 212.400 C 127.287 212.400,122.215 210.647,121.496 209.983 C 121.109 209.626,118.949 208.730,116.696 207.993 C 114.443 207.256,112.323 206.423,111.985 206.142 C 111.052 205.365,107.781 203.995,104.885 203.167 C 103.458 202.759,102.000 202.187,101.645 201.895 C 100.478 200.937,94.753 198.800,93.353 198.800 C 92.416 198.800,90.800 197.881,90.800 197.348 C 90.800 197.060,90.440 196.183,90.000 195.400 C 89.211 193.995,89.200 193.234,89.200 138.526 L 89.200 83.076 90.220 81.738 L 91.241 80.400 121.471 80.400 L 151.701 80.400 154.136 79.163 C 158.820 76.782,159.219 75.606,158.254 67.000 C 157.884 63.700,157.586 58.781,157.591 56.069 C 157.596 53.357,157.421 48.947,157.202 46.269 C 156.496 37.624,155.936 31.851,155.585 29.600 C 155.396 28.390,155.117 21.235,154.965 13.700 L 154.689 0.000 153.088 0.000 L 151.486 0.000 151.751 7.500 M255.050 13.100 C 254.903 20.305,254.616 30.970,254.414 36.800 C 254.212 42.630,253.921 51.630,253.768 56.800 C 253.518 65.234,253.403 66.364,252.654 67.800 C 251.374 70.251,251.506 74.743,252.899 76.136 C 253.460 76.696,253.982 77.310,254.059 77.501 C 254.137 77.691,255.100 78.466,256.200 79.223 L 258.200 80.600 288.000 80.625 C 316.845 80.648,321.069 80.789,321.694 81.749 C 321.856 81.997,321.991 107.708,321.994 138.884 L 322.000 195.569 321.100 196.433 C 319.870 197.613,317.924 198.797,317.211 198.799 C 315.971 198.802,310.945 200.566,309.800 201.401 C 309.140 201.882,306.980 202.771,305.000 203.377 C 303.020 203.983,300.590 204.953,299.600 205.532 C 297.740 206.620,295.363 207.583,294.515 207.594 C 293.466 207.607,289.740 209.242,288.689 210.151 C 287.992 210.754,286.428 211.366,284.489 211.795 C 281.098 212.546,280.000 212.963,278.202 214.186 C 276.806 215.135,274.546 215.985,273.394 215.994 C 272.219 216.003,268.372 217.475,267.130 218.391 C 266.541 218.825,264.651 219.549,262.930 220.000 C 259.833 220.812,256.664 222.156,255.704 223.065 C 255.431 223.323,254.621 223.653,253.904 223.797 C 251.563 224.267,247.028 225.737,245.755 226.439 C 243.318 227.781,242.979 227.928,241.200 228.405 C 240.210 228.671,238.521 229.228,237.447 229.644 C 236.372 230.060,235.247 230.400,234.947 230.400 C 234.646 230.400,234.400 230.559,234.400 230.754 C 234.400 231.191,231.906 232.400,230.006 232.886 C 229.233 233.083,228.024 233.394,227.320 233.576 C 226.616 233.758,225.166 234.444,224.098 235.102 C 223.030 235.759,221.716 236.426,221.178 236.585 C 216.371 238.002,214.991 239.644,215.278 243.604 C 215.485 246.467,215.908 246.906,219.916 248.415 C 220.640 248.687,221.450 249.220,221.716 249.599 C 221.982 249.978,223.460 251.104,225.000 252.100 C 226.540 253.097,228.160 254.312,228.600 254.801 C 229.040 255.291,230.265 256.109,231.323 256.620 C 232.380 257.131,233.605 258.007,234.045 258.567 C 234.485 259.126,235.465 259.878,236.223 260.238 C 236.980 260.597,237.600 261.051,237.600 261.246 C 237.600 261.441,237.795 261.600,238.033 261.600 C 238.271 261.600,239.230 262.226,240.164 262.992 C 241.098 263.757,242.517 264.657,243.317 264.991 C 244.118 265.326,245.373 266.184,246.107 266.900 C 246.841 267.615,248.332 268.650,249.421 269.200 C 251.335 270.167,251.697 270.415,253.878 272.250 C 254.433 272.718,255.597 273.335,256.463 273.621 C 257.385 273.925,258.299 274.582,258.668 275.207 C 259.029 275.819,260.314 276.757,261.679 277.405 C 262.988 278.026,264.853 279.285,265.823 280.201 C 266.793 281.118,268.310 282.106,269.194 282.398 C 270.077 282.689,270.800 283.071,270.800 283.246 C 270.800 283.874,272.767 285.513,274.566 286.384 C 275.575 286.872,276.400 287.423,276.400 287.607 C 276.400 287.989,279.401 290.082,281.321 291.038 C 282.024 291.389,283.051 292.173,283.602 292.780 C 284.153 293.387,285.413 294.290,286.402 294.786 C 287.391 295.282,288.650 296.087,289.200 296.574 C 289.750 297.062,291.190 298.067,292.400 298.808 C 293.610 299.549,295.331 300.813,296.225 301.617 C 297.224 302.515,298.766 303.357,300.225 303.802 C 301.531 304.200,302.771 304.677,302.980 304.863 C 303.494 305.319,305.864 305.289,307.372 304.808 C 308.047 304.593,310.040 303.985,311.800 303.457 C 314.632 302.608,315.809 302.084,319.322 300.106 C 319.805 299.834,320.470 299.606,320.800 299.600 C 321.889 299.578,325.348 298.108,329.000 296.115 C 329.440 295.874,330.610 295.448,331.600 295.167 C 332.590 294.886,333.580 294.541,333.800 294.400 C 334.020 294.259,334.965 293.903,335.900 293.608 C 336.835 293.313,337.600 292.941,337.600 292.780 C 337.600 292.352,340.694 291.004,343.000 290.426 C 345.501 289.800,346.647 289.296,348.317 288.087 C 349.041 287.563,350.761 286.812,352.139 286.417 C 355.007 285.597,357.132 284.580,358.000 283.613 C 358.330 283.245,359.500 282.714,360.600 282.434 C 364.469 281.447,366.643 280.567,367.600 279.599 C 368.236 278.956,369.737 278.401,373.000 277.603 C 375.542 276.980,377.047 276.309,378.778 275.023 C 379.535 274.460,380.472 274.000,380.859 274.000 C 381.635 274.000,382.596 273.639,386.259 271.974 C 387.611 271.359,388.837 270.664,388.983 270.428 C 389.128 270.193,389.567 270.000,389.958 270.000 C 390.793 270.000,395.252 268.604,397.060 267.777 C 397.754 267.460,398.699 267.200,399.160 267.200 C 399.853 267.200,400.000 266.955,400.000 265.800 C 400.000 263.675,397.189 263.952,392.102 266.576 C 391.056 267.116,389.045 267.949,387.633 268.428 C 386.221 268.907,384.227 269.794,383.201 270.399 C 382.175 271.004,380.630 271.747,379.768 272.050 C 378.906 272.352,376.490 273.455,374.400 274.500 C 372.310 275.544,370.330 276.402,370.000 276.405 C 369.126 276.414,366.154 277.492,363.400 278.798 C 362.080 279.425,359.650 280.473,358.000 281.127 C 356.350 281.782,353.650 282.949,352.000 283.719 C 350.350 284.490,347.740 285.604,346.200 286.194 C 344.660 286.784,342.770 287.541,342.000 287.874 C 341.230 288.208,340.195 288.643,339.700 288.841 C 339.205 289.038,338.395 289.368,337.900 289.574 C 337.405 289.779,336.280 290.177,335.400 290.459 C 334.520 290.740,333.350 291.254,332.800 291.600 C 331.536 292.395,330.406 292.899,327.400 294.007 C 326.080 294.493,323.740 295.491,322.200 296.223 C 320.660 296.956,318.500 297.857,317.400 298.225 C 315.181 298.968,311.910 300.421,311.600 300.800 C 309.735 303.085,302.140 302.977,299.278 300.626 C 298.685 300.138,297.300 299.131,296.200 298.388 C 295.100 297.645,293.660 296.535,293.000 295.920 C 292.340 295.306,291.655 294.803,291.478 294.802 C 291.124 294.800,286.320 291.627,286.000 291.183 C 285.890 291.031,284.810 290.272,283.600 289.496 C 282.390 288.721,280.860 287.617,280.200 287.044 C 279.540 286.470,278.852 286.001,278.672 286.000 C 278.336 286.000,274.761 283.656,274.400 283.200 C 274.090 282.808,270.487 280.400,270.210 280.400 C 270.076 280.400,269.525 279.992,268.988 279.494 C 268.450 278.995,267.333 278.230,266.505 277.794 C 264.763 276.875,264.662 276.806,262.800 275.280 C 262.030 274.649,260.230 273.347,258.800 272.386 C 257.370 271.425,255.861 270.324,255.446 269.939 C 255.031 269.555,254.079 268.949,253.330 268.593 C 252.581 268.238,251.390 267.454,250.684 266.852 C 249.978 266.249,247.870 264.800,246.000 263.630 C 244.130 262.460,242.540 261.345,242.467 261.152 C 242.393 260.958,242.156 260.800,241.939 260.800 C 241.552 260.800,237.993 258.501,237.600 257.996 C 237.490 257.855,236.230 256.953,234.800 255.992 C 233.370 255.031,231.949 253.996,231.642 253.693 C 231.336 253.390,230.166 252.616,229.042 251.974 C 227.919 251.331,226.394 250.267,225.653 249.609 C 224.913 248.952,223.383 247.960,222.253 247.405 C 218.350 245.490,217.954 244.955,218.548 242.400 C 218.890 240.930,219.283 240.157,219.730 240.071 C 220.099 240.000,220.400 239.775,220.400 239.571 C 220.400 239.367,220.724 239.200,221.120 239.200 C 221.516 239.200,222.011 239.041,222.220 238.847 C 222.429 238.652,223.770 238.088,225.200 237.593 C 226.630 237.098,228.610 236.336,229.600 235.900 C 230.590 235.464,231.979 234.852,232.686 234.541 C 233.394 234.230,235.093 233.618,236.462 233.180 C 237.830 232.743,239.862 231.949,240.975 231.416 C 242.089 230.884,244.440 229.976,246.200 229.398 C 247.960 228.821,250.300 227.926,251.400 227.408 C 252.500 226.890,254.570 226.070,256.000 225.587 C 257.430 225.103,258.771 224.548,258.980 224.353 C 259.189 224.159,259.684 224.000,260.080 224.000 C 260.476 224.000,260.800 223.864,260.800 223.698 C 260.800 223.219,266.755 220.800,267.933 220.800 C 268.233 220.800,269.946 220.093,271.739 219.229 C 273.533 218.366,275.887 217.367,276.970 217.010 C 278.678 216.448,280.084 215.909,283.800 214.391 C 284.240 214.211,285.410 213.794,286.400 213.464 C 289.907 212.294,292.799 211.190,294.886 210.224 C 296.049 209.686,298.440 208.774,300.200 208.198 C 301.960 207.621,304.390 206.692,305.600 206.133 C 306.810 205.574,308.205 204.955,308.700 204.758 C 309.195 204.561,310.005 204.232,310.500 204.026 C 310.995 203.821,312.570 203.267,314.000 202.795 C 320.503 200.652,322.944 199.020,323.492 196.449 C 324.203 193.107,323.853 81.096,323.126 79.771 C 321.864 77.467,323.637 77.591,290.549 77.492 L 259.800 77.400 257.898 76.464 C 255.162 75.116,255.145 74.994,255.944 61.800 C 256.197 57.620,256.588 49.250,256.812 43.200 C 257.037 37.150,257.395 28.780,257.608 24.600 C 257.822 20.420,258.114 13.175,258.257 8.500 L 258.518 0.000 256.918 0.000 L 255.318 0.000 255.050 13.100 M103.000 313.447 C 98.276 314.504,97.117 314.933,95.816 316.108 C 95.385 316.498,93.765 317.182,92.216 317.629 C 88.081 318.824,85.355 319.966,84.570 320.834 C 84.188 321.255,83.601 321.600,83.265 321.600 C 81.842 321.600,76.300 323.756,75.000 324.815 C 74.560 325.174,72.670 325.954,70.800 326.548 C 68.930 327.143,66.680 328.067,65.800 328.601 C 63.805 329.813,62.970 330.193,61.200 330.695 C 57.239 331.818,56.225 332.242,55.191 333.208 C 54.543 333.814,52.586 334.742,50.590 335.392 C 48.680 336.013,46.613 336.946,45.997 337.464 C 45.310 338.042,43.354 338.793,40.938 339.406 C 38.344 340.064,36.318 340.861,35.000 341.743 C 33.900 342.479,31.957 343.318,30.681 343.609 C 29.406 343.899,28.270 344.286,28.158 344.468 C 28.045 344.651,27.590 344.800,27.146 344.800 C 26.702 344.800,25.798 345.340,25.138 346.000 C 24.478 346.660,23.675 347.200,23.353 347.200 C 22.603 347.200,17.627 348.721,16.677 349.240 C 13.586 350.931,11.166 352.000,10.431 352.000 C 9.953 352.000,8.816 352.360,7.906 352.800 C 6.995 353.240,6.059 353.605,5.825 353.611 C 5.591 353.617,4.693 354.157,3.829 354.811 C 2.948 355.478,1.761 356.000,1.129 356.000 C 0.141 356.000,0.000 356.150,0.000 357.200 C 0.000 359.238,2.152 358.796,9.800 355.185 C 11.560 354.354,14.392 353.210,16.094 352.642 C 17.796 352.074,20.046 351.174,21.094 350.641 C 22.142 350.108,23.720 349.364,24.600 348.988 C 25.480 348.612,27.838 347.516,29.840 346.552 C 31.842 345.588,33.692 344.800,33.951 344.800 C 34.210 344.800,36.352 343.932,38.711 342.870 C 41.070 341.809,43.810 340.697,44.800 340.400 C 45.790 340.104,46.771 339.712,46.980 339.530 C 47.189 339.349,47.588 339.200,47.866 339.200 C 48.145 339.200,50.221 338.300,52.479 337.200 C 54.737 336.100,56.725 335.200,56.897 335.200 C 57.068 335.200,58.062 334.819,59.104 334.353 C 62.781 332.711,63.419 332.452,65.400 331.788 C 67.186 331.189,73.486 328.497,75.295 327.560 C 75.677 327.362,76.185 327.200,76.425 327.200 C 76.665 327.200,78.602 326.339,80.730 325.286 C 82.859 324.233,85.410 323.121,86.400 322.814 C 87.390 322.508,89.681 321.569,91.492 320.728 C 93.302 319.888,94.970 319.200,95.197 319.200 C 95.425 319.200,95.923 319.038,96.305 318.840 C 103.821 314.949,107.550 314.379,110.154 316.723 C 110.619 317.143,112.087 318.212,113.416 319.101 C 114.745 319.989,116.088 321.024,116.400 321.400 C 116.712 321.776,117.335 322.227,117.784 322.401 C 118.478 322.672,126.571 328.244,128.406 329.715 C 128.739 329.982,129.459 330.433,130.006 330.717 C 130.553 331.001,132.342 332.225,133.983 333.437 C 135.623 334.649,137.513 335.902,138.183 336.220 C 138.852 336.538,139.936 337.260,140.590 337.823 C 141.245 338.387,142.327 339.107,142.995 339.424 C 143.663 339.741,144.928 340.637,145.805 341.415 C 146.682 342.193,148.210 343.311,149.200 343.900 C 150.190 344.489,151.060 345.112,151.133 345.285 C 151.207 345.458,151.488 345.600,151.758 345.600 C 152.028 345.600,152.598 345.924,153.025 346.319 C 153.451 346.715,154.970 347.827,156.400 348.789 C 157.830 349.752,159.090 350.659,159.200 350.804 C 159.310 350.949,161.110 352.208,163.200 353.601 C 165.290 354.995,167.060 356.285,167.133 356.468 C 167.207 356.650,167.477 356.805,167.733 356.811 C 168.120 356.820,175.665 361.934,177.000 363.092 C 177.220 363.283,178.570 364.228,180.000 365.192 C 181.430 366.157,183.230 367.430,184.000 368.021 C 184.770 368.613,186.210 369.525,187.200 370.049 C 188.190 370.572,189.219 371.180,189.486 371.400 C 189.753 371.620,190.228 372.013,190.540 372.272 C 190.852 372.532,191.334 373.689,191.611 374.844 C 192.207 377.332,191.559 378.108,187.602 379.639 C 186.391 380.108,184.860 380.724,184.200 381.009 C 181.416 382.211,177.838 383.600,177.527 383.600 C 177.196 383.600,175.328 384.399,171.400 386.221 C 170.300 386.732,167.960 387.621,166.200 388.198 C 164.440 388.775,162.415 389.507,161.700 389.824 C 160.985 390.141,159.815 390.658,159.100 390.973 C 158.385 391.288,156.942 391.827,155.894 392.170 C 154.846 392.514,152.876 393.356,151.518 394.041 C 150.159 394.727,148.137 395.547,147.024 395.862 C 144.680 396.527,144.289 396.682,140.800 398.331 C 139.370 399.007,137.258 399.828,136.106 400.157 C 134.955 400.485,132.885 401.291,131.506 401.948 C 130.128 402.606,128.100 403.439,127.000 403.801 C 125.302 404.360,117.165 407.375,114.600 408.396 C 110.773 409.919,109.416 410.400,108.947 410.400 C 108.646 410.400,108.400 410.580,108.400 410.800 C 108.400 411.020,108.076 411.200,107.680 411.200 C 107.284 411.200,106.789 411.359,106.580 411.553 C 106.371 411.748,105.030 412.300,103.600 412.780 C 102.170 413.260,100.640 413.797,100.200 413.973 C 98.598 414.614,97.361 415.137,95.504 415.960 C 94.462 416.422,93.420 416.800,93.188 416.800 C 91.200 416.800,87.443 420.058,86.817 422.325 C 86.351 424.011,86.256 534.427,86.718 536.966 C 87.335 540.358,85.482 540.172,121.010 540.400 C 145.618 540.558,152.345 540.709,152.810 541.114 C 153.135 541.396,153.743 541.864,154.162 542.154 C 155.454 543.046,155.459 547.173,154.195 570.900 L 154.009 574.400 155.547 574.400 L 157.084 574.400 157.339 571.700 C 157.480 570.215,157.600 566.840,157.606 564.200 C 157.618 559.333,158.510 548.392,158.954 547.674 C 159.714 546.445,158.647 542.182,157.233 540.794 C 154.462 538.075,156.214 538.208,122.200 538.142 L 91.400 538.083 90.309 536.141 L 89.219 534.200 89.209 478.700 C 89.204 448.175,89.338 423.200,89.506 423.200 C 89.674 423.200,90.236 422.513,90.755 421.673 C 91.678 420.179,93.391 419.140,95.865 418.573 C 98.824 417.894,103.600 416.062,103.600 415.605 C 103.600 415.264,104.875 414.750,107.600 413.992 C 111.229 412.983,112.225 412.613,113.400 411.834 C 114.060 411.396,114.690 410.932,114.800 410.802 C 114.910 410.673,115.720 410.362,116.600 410.111 C 117.480 409.861,119.229 409.358,120.487 408.995 C 121.744 408.631,123.434 407.809,124.242 407.167 C 125.049 406.525,126.077 406.000,126.527 406.000 C 126.976 406.000,127.896 405.832,128.572 405.627 C 129.247 405.422,130.610 405.028,131.600 404.753 C 133.159 404.318,135.368 403.140,136.000 402.406 C 136.110 402.278,137.190 401.947,138.400 401.670 C 142.990 400.619,145.451 399.607,146.400 398.380 C 146.510 398.238,148.214 397.705,150.186 397.197 C 152.158 396.689,155.076 395.582,156.672 394.737 C 158.267 393.891,159.861 393.200,160.215 393.200 C 161.708 393.200,169.050 390.387,169.600 389.604 C 169.710 389.447,170.250 389.215,170.800 389.087 C 173.528 388.455,174.796 388.033,177.000 387.022 C 178.320 386.416,179.490 385.783,179.600 385.615 C 179.710 385.447,181.150 384.903,182.800 384.408 C 187.548 382.981,189.093 382.365,190.469 381.349 C 191.177 380.827,191.951 380.400,192.189 380.400 C 193.109 380.400,195.600 377.514,195.594 376.454 C 195.579 373.786,192.428 369.200,190.610 369.200 C 189.825 369.200,187.695 368.025,187.484 367.475 C 187.377 367.197,186.145 366.271,184.745 365.418 C 183.345 364.564,181.446 363.182,180.524 362.347 C 179.602 361.511,178.374 360.708,177.796 360.563 C 177.218 360.418,175.946 359.512,174.970 358.550 C 173.994 357.587,172.926 356.800,172.598 356.800 C 172.269 356.800,172.000 356.620,172.000 356.400 C 172.000 356.180,171.775 355.999,171.500 355.998 C 171.225 355.997,170.460 355.496,169.800 354.885 C 167.973 353.194,166.152 352.000,165.399 352.000 C 165.026 352.000,164.226 351.471,163.622 350.823 C 163.017 350.176,161.460 349.017,160.161 348.248 C 158.863 347.479,157.331 346.405,156.758 345.862 C 155.654 344.817,152.746 343.200,151.969 343.200 C 151.715 343.200,150.808 342.480,149.954 341.600 C 149.100 340.720,148.048 340.000,147.617 340.000 C 147.185 340.000,146.073 339.256,145.145 338.346 C 143.212 336.451,140.137 334.401,139.222 334.397 C 138.880 334.396,138.299 333.866,137.932 333.220 C 137.548 332.546,136.365 331.590,135.152 330.976 C 133.991 330.387,132.725 329.504,132.338 329.011 C 131.951 328.519,130.411 327.467,128.917 326.672 C 127.423 325.878,125.631 324.633,124.935 323.907 C 124.239 323.180,122.984 322.338,122.147 322.035 C 121.310 321.732,120.300 321.072,119.902 320.567 C 119.505 320.062,118.690 319.392,118.090 319.079 C 115.340 317.641,114.742 317.251,113.711 316.220 C 111.589 314.098,106.259 312.718,103.000 313.447 M302.400 313.628 C 301.630 313.809,300.488 314.080,299.863 314.232 C 299.238 314.383,298.068 315.173,297.263 315.988 C 296.458 316.802,295.219 317.698,294.509 317.979 C 293.799 318.260,292.604 319.190,291.854 320.045 C 291.105 320.900,290.327 321.600,290.125 321.600 C 289.510 321.600,287.606 322.581,287.603 322.900 C 287.601 323.065,287.322 323.200,286.983 323.200 C 286.643 323.200,285.653 323.859,284.783 324.664 C 283.913 325.469,282.511 326.437,281.669 326.814 C 280.826 327.191,279.791 327.934,279.369 328.465 C 278.946 328.996,277.396 330.102,275.924 330.921 C 274.453 331.741,272.909 332.844,272.494 333.371 C 272.079 333.899,270.908 334.721,269.892 335.199 C 268.875 335.677,267.591 336.661,267.037 337.387 C 266.484 338.112,265.547 338.827,264.954 338.976 C 263.732 339.282,260.365 341.473,259.877 342.278 C 259.699 342.572,258.502 343.343,257.217 343.991 C 255.933 344.640,254.522 345.627,254.083 346.185 C 253.644 346.743,253.113 347.200,252.904 347.200 C 252.271 347.200,250.118 348.376,249.593 349.008 C 249.323 349.334,248.920 349.600,248.698 349.600 C 248.476 349.600,248.003 349.935,247.647 350.345 C 247.291 350.754,246.086 351.567,244.969 352.150 C 243.853 352.734,242.413 353.760,241.771 354.431 C 241.128 355.101,239.873 355.973,238.981 356.367 C 238.089 356.762,236.739 357.623,235.980 358.282 C 235.221 358.941,233.496 360.229,232.146 361.144 C 230.796 362.059,229.467 363.078,229.193 363.409 C 228.919 363.739,227.928 364.348,226.990 364.763 C 226.053 365.178,224.740 366.088,224.073 366.787 C 223.405 367.486,221.649 368.688,220.171 369.459 C 216.544 371.350,215.596 372.758,215.602 376.246 C 215.607 378.946,219.977 381.798,228.200 384.468 C 229.740 384.968,231.630 385.777,232.400 386.266 C 233.971 387.263,239.497 389.200,240.771 389.200 C 241.227 389.200,241.600 389.355,241.600 389.545 C 241.600 390.085,246.230 392.029,249.961 393.055 C 251.822 393.567,253.450 394.158,253.580 394.368 C 253.934 394.940,257.111 396.214,259.600 396.782 C 261.982 397.325,263.318 397.870,265.800 399.310 C 266.680 399.820,268.210 400.475,269.200 400.766 C 270.190 401.056,271.522 401.452,272.160 401.647 C 272.798 401.841,273.633 402.000,274.017 402.000 C 274.401 402.000,275.247 402.495,275.896 403.100 C 277.016 404.143,277.899 404.475,282.600 405.622 C 283.700 405.891,285.455 406.644,286.501 407.297 C 287.547 407.950,288.987 408.631,289.701 408.810 C 293.567 409.779,295.916 410.636,296.882 411.429 C 297.823 412.202,302.399 413.833,305.672 414.562 C 306.262 414.694,306.982 415.033,307.272 415.317 C 307.970 415.999,311.427 417.600,312.201 417.600 C 312.536 417.600,313.123 417.758,313.505 417.951 C 313.887 418.144,314.920 418.529,315.800 418.808 C 316.680 419.086,317.872 419.693,318.450 420.157 C 319.027 420.621,320.062 421.307,320.750 421.681 L 322.000 422.363 322.000 479.305 C 322.000 540.895,322.139 537.201,319.800 537.830 C 319.140 538.008,304.830 538.264,288.000 538.400 C 271.170 538.536,256.923 538.789,256.339 538.963 C 252.631 540.066,250.788 545.448,252.697 549.600 C 253.424 551.181,253.554 552.471,253.769 560.200 C 253.903 565.040,254.126 570.215,254.264 571.700 L 254.515 574.400 255.842 574.400 L 257.168 574.400 256.972 568.300 C 256.864 564.945,256.580 559.590,256.341 556.400 C 256.101 553.210,255.898 549.068,255.888 547.195 C 255.852 540.368,253.470 540.800,291.121 540.800 L 321.491 540.800 322.500 539.791 C 323.056 539.235,323.710 537.986,323.955 537.013 C 324.590 534.491,324.586 423.699,323.950 422.119 C 322.911 419.534,322.593 418.966,321.817 418.309 C 321.368 417.929,320.773 417.614,320.496 417.609 C 320.004 417.600,318.283 416.879,314.175 414.961 C 313.062 414.440,311.082 413.671,309.775 413.250 C 308.469 412.830,305.510 411.729,303.200 410.805 C 300.890 409.881,298.190 408.863,297.200 408.542 C 296.210 408.222,295.040 407.800,294.600 407.605 C 294.160 407.410,293.350 407.125,292.800 406.973 C 292.250 406.820,291.080 406.371,290.200 405.975 C 289.320 405.579,287.700 404.960,286.600 404.598 C 284.575 403.934,283.412 403.451,279.800 401.778 C 278.700 401.268,276.361 400.370,274.603 399.783 C 272.844 399.196,270.555 398.284,269.515 397.757 C 268.475 397.230,266.763 396.510,265.712 396.157 C 264.660 395.804,262.450 394.892,260.800 394.129 C 259.150 393.367,256.450 392.295,254.800 391.748 C 253.150 391.200,250.889 390.316,249.775 389.784 C 248.662 389.251,246.605 388.449,245.204 388.001 C 243.804 387.554,241.205 386.582,239.429 385.841 C 237.653 385.101,235.120 384.085,233.800 383.585 C 232.480 383.085,230.320 382.188,229.000 381.593 C 227.680 380.998,225.414 380.028,223.965 379.438 C 222.516 378.848,220.873 377.997,220.314 377.547 L 219.296 376.729 219.943 374.664 C 220.299 373.529,220.773 372.412,220.995 372.182 C 221.606 371.552,231.136 365.200,231.471 365.200 C 231.631 365.200,232.310 364.687,232.981 364.061 C 234.182 362.938,237.558 360.611,242.953 357.185 C 244.467 356.224,245.907 355.243,246.153 355.005 C 246.399 354.767,247.442 354.084,248.472 353.486 C 249.501 352.888,250.581 352.163,250.872 351.875 C 251.162 351.586,253.020 350.237,255.000 348.876 C 261.058 344.714,262.446 343.705,263.543 342.666 C 264.125 342.116,265.680 341.080,267.000 340.364 C 269.027 339.264,272.077 337.170,272.800 336.382 C 272.910 336.262,273.678 335.772,274.507 335.292 C 275.335 334.812,276.235 334.236,276.507 334.012 C 276.778 333.789,278.350 332.699,280.000 331.592 C 287.681 326.438,293.066 322.695,294.004 321.859 C 300.364 316.193,305.585 314.695,310.235 317.204 C 311.355 317.808,313.425 318.696,314.835 319.177 C 317.418 320.059,319.230 320.828,319.600 321.200 C 319.913 321.515,323.250 323.006,326.400 324.238 C 327.390 324.626,328.566 325.175,329.013 325.460 C 329.459 325.745,330.951 326.337,332.326 326.776 C 334.754 327.552,335.588 327.890,339.800 329.805 C 342.827 331.181,344.333 331.811,347.400 332.985 C 351.730 334.643,356.720 336.749,359.800 338.219 C 361.340 338.954,363.500 339.844,364.600 340.198 C 366.989 340.965,367.437 341.147,370.800 342.712 C 373.467 343.953,375.639 344.815,378.800 345.885 C 379.790 346.220,381.050 346.802,381.600 347.177 C 382.597 347.858,386.197 349.600,386.607 349.600 C 386.726 349.600,388.180 350.244,389.839 351.031 C 397.340 354.591,400.000 355.120,400.000 353.052 C 400.000 351.821,399.878 351.685,398.596 351.477 C 397.824 351.352,396.699 350.909,396.096 350.493 C 394.615 349.471,388.465 347.201,387.172 347.199 C 386.857 347.199,385.997 346.683,385.261 346.054 C 384.061 345.028,380.472 343.620,377.511 343.013 C 376.912 342.891,376.102 342.457,375.711 342.049 C 374.663 340.957,373.391 340.382,370.231 339.573 C 366.138 338.524,365.600 338.341,365.600 338.000 C 365.600 337.557,361.796 335.810,359.000 334.969 C 357.680 334.572,355.970 333.761,355.200 333.166 C 354.430 332.571,353.080 331.862,352.200 331.591 C 351.320 331.320,350.187 330.941,349.681 330.749 C 349.176 330.557,348.446 330.400,348.060 330.400 C 347.674 330.400,346.647 329.892,345.779 329.271 C 344.155 328.109,340.322 326.400,339.340 326.400 C 339.036 326.400,337.395 325.700,335.694 324.844 C 333.992 323.988,331.880 323.065,331.000 322.793 C 330.120 322.520,328.987 322.141,328.481 321.949 C 327.976 321.757,327.290 321.600,326.958 321.600 C 326.625 321.600,325.689 321.079,324.877 320.442 C 323.533 319.388,320.266 318.053,317.528 317.439 C 316.938 317.307,316.199 316.942,315.886 316.629 C 315.308 316.051,312.791 314.837,310.600 314.080 C 308.924 313.501,304.078 313.234,302.400 313.628 " stroke="none" fill="#cab8c5" fill-rule="evenodd"></path></g></svg>