<svg id="svg" xmlns="http://www.w3.org/2000/svg" xmlns:xlink="http://www.w3.org/1999/xlink" width="400" height="486.3837872070931" viewBox="0, 0, 400,486.3837872070931"><g id="svgg"><path id="path0" d="M83.558 0.950 C 79.782 4.928,72.530 18.793,67.835 31.011 C 48.217 82.066,43.835 141.842,55.971 192.843 C 68.886 247.118,100.985 295.757,148.455 332.983 C 150.340 334.460,150.341 334.551,148.414 329.836 L 147.055 326.512 143.002 322.798 C 63.972 250.373,36.407 154.562,65.240 52.516 C 68.658 40.418,77.731 15.567,77.754 18.239 C 77.757 18.588,77.644 20.298,77.503 22.039 C 72.927 78.514,102.732 118.177,169.981 145.102 C 187.999 152.317,199.847 158.217,212.666 166.361 C 248.041 188.832,268.727 219.237,270.003 250.635 L 270.171 254.762 273.581 252.582 C 277.570 250.031,277.332 250.486,277.363 245.345 C 277.521 219.019,261.837 191.011,234.943 169.594 C 219.374 157.196,202.950 148.098,177.581 137.818 C 132.913 119.718,107.737 99.272,93.817 69.791 C 85.751 52.709,83.297 34.851,85.358 8.246 C 86.046 -0.629,85.842 -1.455,83.558 0.950 M293.719 8.487 C 288.631 14.073,287.225 16.418,285.597 22.032 C 281.884 34.832,284.087 49.923,294.657 84.104 C 296.057 88.632,298.453 96.384,299.980 101.330 C 307.164 124.589,310.305 136.680,311.696 146.422 C 315.439 172.643,310.091 199.950,297.532 218.734 C 296.625 220.090,295.883 221.238,295.883 221.286 C 295.883 221.334,297.558 220.576,299.604 219.601 C 332.801 203.798,364.180 206.093,383.884 225.764 C 386.835 228.710,387.093 228.771,385.155 226.065 C 367.432 201.317,337.318 195.935,306.606 212.027 L 303.776 213.510 305.375 211.062 C 318.248 191.343,323.148 163.302,318.542 135.701 C 316.909 125.914,313.829 114.735,304.708 85.497 C 296.558 59.370,294.091 50.319,292.484 40.659 C 289.959 25.477,291.213 14.932,296.540 6.528 C 298.598 3.281,298.222 3.543,293.719 8.487 M261.543 30.036 C 254.248 34.616,247.635 39.948,239.100 48.132 C 219.064 67.343,205.607 94.440,202.524 121.784 C 201.966 126.737,201.937 126.658,203.797 125.264 C 209.419 121.048,211.578 117.755,213.760 110.070 C 221.757 81.906,242.344 50.170,262.747 34.556 C 264.613 33.128,264.846 32.847,265.601 31.110 L 266.424 29.218 265.317 28.922 C 263.826 28.523,264.064 28.452,261.543 30.036 M329.702 224.881 C 326.506 225.658,325.718 230.370,328.437 232.444 C 330.154 233.753,332.703 233.512,334.112 231.907 C 337.031 228.582,334.046 223.826,329.702 224.881 M398.353 232.718 C 370.715 240.710,348.814 257.530,338.701 278.531 C 335.032 286.149,333.398 291.822,331.604 303.162 C 325.338 342.770,289.101 377.571,241.338 389.852 C 223.312 394.487,205.681 395.445,185.054 392.909 C 149.370 388.523,126.872 392.660,113.483 406.069 C 105.898 413.665,103.480 419.924,103.646 431.539 C 103.858 446.385,103.740 454.472,103.277 456.931 C 101.013 468.938,94.440 474.319,81.064 475.119 C 62.647 476.221,39.527 465.383,20.591 446.770 C 17.194 443.431,17.096 443.444,18.860 447.008 C 24.695 458.801,35.232 468.703,50.002 476.274 C 71.021 487.048,88.837 489.314,99.230 482.534 C 109.299 475.965,112.134 465.227,111.118 437.492 C 110.676 425.419,113.759 417.295,121.266 410.748 C 134.718 399.015,156.797 395.807,192.654 400.373 C 240.926 406.521,289.201 388.863,318.335 354.402 C 330.619 339.872,336.765 326.170,339.583 307.030 C 343.908 277.655,361.277 253.052,387.334 239.392 C 400.608 232.433,401.768 231.731,398.353 232.718 M25.966 317.340 C 19.736 318.167,12.616 325.201,7.564 335.520 C 4.729 341.310,3.797 344.505,2.297 353.571 C -1.727 377.885,-0.725 392.895,6.375 414.653 C 8.061 419.821,8.490 420.439,7.513 416.292 C 3.432 398.970,2.996 376.838,6.349 357.107 C 9.126 340.766,18.437 325.656,25.690 325.721 C 28.343 325.745,30.121 326.981,32.666 330.570 C 37.347 337.172,43.689 340.731,53.852 342.457 C 70.249 345.242,95.086 342.544,123.496 334.891 C 131.751 332.667,133.751 331.858,128.160 333.004 C 99.247 338.930,70.616 340.167,55.098 336.160 C 45.724 333.739,40.283 330.220,36.838 324.351 C 34.042 319.589,30.146 316.758,26.996 317.201 C 26.847 317.222,26.384 317.284,25.966 317.340 " stroke="none" fill="#000000" fill-rule="evenodd"></path></g></svg>